<svg xmlns="http://www.w3.org/2000/svg" viewBox="0 0 500 500"><g id="freepik--Floor--inject-5"><path id="freepik--floor--inject-5" d="M79,242.28c-94.46,54.53-94.46,143,0,197.48s247.61,54.54,342.06,0,94.46-142.95,0-197.48S173.42,187.74,79,242.28Z" style="fill:#fafafa"></path></g><g id="freepik--Windows--inject-5"><g id="freepik--Window--inject-5"><g id="freepik--window--inject-5"><polygon points="29.99 204.68 32.71 204.86 118.55 155.27 117.19 154.28 29.99 204.68" style="fill:#fafafa"></polygon><polygon points="117.19 154.28 32.71 203.11 32.71 83.12 117.19 34.29 117.19 154.28" style="fill:#fafafa"></polygon><path d="M121.27,28.82,30,81.55v128l91.28-52.73Zm-2.72,126.45L32.71,204.86V83.12l85.84-49.59Z" style="fill:#f0f0f0"></path><polygon points="118.55 155.27 117.19 154.28 117.19 34.29 118.55 33.53 118.55 155.27" style="fill:#e0e0e0"></polygon><polygon points="121.27 28.82 119.91 28.03 28.63 80.77 29.99 81.55 121.27 28.82" style="fill:#fafafa"></polygon><polygon points="28.63 80.77 29.99 81.55 29.99 209.57 28.63 208.79 28.63 80.77" style="fill:#e0e0e0"></polygon><polygon points="32.71 142.98 117.19 94.12 118.55 94.94 32.71 144.53 32.71 142.98" style="fill:#fafafa"></polygon><polygon points="118.55 94.94 118.55 97.98 32.71 147.57 32.71 144.53 118.55 94.94" style="fill:#f0f0f0"></polygon></g><g id="freepik--Blinds--inject-5"><path d="M32.71,120.91v3.63l85.2-49.26-.72-3.19Zm0-5.07v3.62l85.2-49.26L117.19,67Zm0,10.14v3.63l85.2-49.26-.72-3.19Zm0,5.08v3.62l85.2-49.26-.72-3.18Zm84.48-94.48L32.71,85.4V89l85.2-49.26Zm-84.48,59v3.63l85.2-49.26-.72-3.19Zm0,15.22v3.63l85.2-49.26-.72-3.19Zm0-10.14v3.62L117.91,55l-.72-3.18Zm0-10.15V94.1l85.2-49.26-.72-3.19Zm0,15.22v3.63l85.2-49.26-.72-3.19Z" style="fill:#ebebeb"></path><path d="M117.19,36.58,32.71,85.4v1.45l84.77-49ZM32.71,90.47v1.46l84.77-49-.29-1.27Zm0,5.07V97l84.77-49-.29-1.27Zm0,5.08v1.45l84.77-49-.29-1.26Zm0,5.07v1.46l84.77-49-.29-1.27Zm0,5.07v1.46l84.77-49-.29-1.27Zm0,5.08v1.45l84.77-49L117.19,67Zm0,5.07v1.46l84.77-49-.29-1.26Zm0,5.07v1.46l84.77-49-.29-1.27Zm0,5.08v1.45l84.77-49-.29-1.26Z" style="opacity:0.2"></path></g></g><g id="freepik--window--inject-5"><g id="freepik--window--inject-5"><polygon points="478.59 204.68 475.87 204.86 390.03 155.27 391.39 154.28 478.59 204.68" style="fill:#fafafa"></polygon><polygon points="391.39 154.28 475.87 203.11 475.87 83.12 391.39 34.29 391.39 154.28" style="fill:#fafafa"></polygon><path d="M387.31,156.84l91.28,52.73v-128L387.31,28.82ZM390,33.53l85.84,49.59V204.86L390,155.27Z" style="fill:#f0f0f0"></path><polygon points="390.03 155.27 391.39 154.28 391.39 34.29 390.03 33.53 390.03 155.27" style="fill:#e0e0e0"></polygon><polygon points="387.31 28.82 388.67 28.03 479.95 80.77 478.59 81.55 387.31 28.82" style="fill:#fafafa"></polygon><polygon points="479.95 80.77 478.59 81.55 478.59 209.57 479.95 208.79 479.95 80.77" style="fill:#e0e0e0"></polygon><polygon points="475.87 142.98 391.39 94.12 390.03 94.94 475.87 144.53 475.87 142.98" style="fill:#fafafa"></polygon><polygon points="390.03 94.94 390.03 97.98 475.87 147.57 475.87 144.53 390.03 94.94" style="fill:#f0f0f0"></polygon></g><g id="freepik--blinds--inject-5"><path d="M391.39,72.09l-.72,3.19,85.2,49.26v-3.63Zm0-5.07-.72,3.18,85.2,49.26v-3.62Zm0,10.14-.72,3.19,85.2,49.26V126Zm0,5.08-.72,3.18,85.2,49.26v-3.62Zm-.72-42.48L475.87,89V85.4L391.39,36.58Zm.72,7-.72,3.19,85.2,49.26V95.54Zm0,15.22-.72,3.19,85.2,49.26v-3.63Zm0-10.14L390.67,55l85.2,49.26v-3.62Zm0-10.15-.72,3.19,85.2,49.26V90.47Zm0,15.22-.72,3.19,85.2,49.26v-3.63Z" style="fill:#ebebeb"></path><path d="M391.1,37.84l84.77,49V85.4L391.39,36.58Zm.29,3.81-.29,1.27,84.77,49V90.47Zm0,5.07L391.1,48l84.77,49V95.54Zm0,5.08-.29,1.26,84.77,49v-1.45Zm0,5.07-.29,1.27,84.77,49v-1.46Zm0,5.07-.29,1.27,84.77,49v-1.46Zm0,5.08-.29,1.26,84.77,49v-1.45Zm0,5.07-.29,1.26,84.77,49v-1.46Zm0,5.07-.29,1.27,84.77,49V126Zm0,5.08-.29,1.26,84.77,49v-1.45Z" style="opacity:0.2"></path></g></g></g><g id="freepik--Pictures--inject-5"><g id="freepik--Picture--inject-5"><g id="freepik--Frame--inject-5"><polygon points="136.69 94.44 138.12 95.3 167.6 78.28 166.16 77.42 136.69 94.44" style="fill:#fafafa"></polygon><polygon points="166.16 77.42 138.12 93.61 138.12 64.24 166.17 48.06 166.16 77.42" style="fill:#fff"></polygon><path d="M170.31,42.53l-34.9,20.15V100l34.9-20.15ZM167.6,78.28l-29.48,17V64.24l29.48-17Z" style="fill:#f0f0f0"></path><polygon points="167.6 78.28 166.16 77.42 166.17 48.06 167.6 47.22 167.6 78.28" style="fill:#e0e0e0"></polygon><polygon points="170.31 42.53 168.85 41.69 133.95 61.84 135.41 62.68 170.31 42.53" style="fill:#fafafa"></polygon><polygon points="133.95 61.84 135.41 62.68 135.41 99.99 133.95 99.16 133.95 61.84" style="fill:#e0e0e0"></polygon></g><g id="freepik--Land--inject-5"><polygon points="165.07 76.54 139.22 91.47 139.22 84 145.68 69.08 149.71 72.81 148.26 79.07 157.19 59.98 165.07 69.08 165.07 76.54" style="fill:#f0f0f0"></polygon><path d="M149.46,61.87a4.24,4.24,0,0,0-1.91,3.31c0,1.22.86,1.72,1.91,1.11A4.22,4.22,0,0,0,151.38,63C151.38,61.76,150.52,61.26,149.46,61.87Z" style="fill:#f0f0f0"></path></g></g><g id="freepik--picture--inject-5"><g id="freepik--frame--inject-5"><polygon points="370.22 89.07 368.78 89.92 339.3 72.9 340.74 72.05 370.22 89.07" style="fill:#fafafa"></polygon><polygon points="340.74 72.05 368.78 88.23 368.78 58.87 340.74 42.69 340.74 72.05" style="fill:#fff"></polygon><path d="M336.59,74.47l34.9,20.15V57.3l-34.9-20.15Zm2.71-32.62,29.48,17V89.92l-29.48-17Z" style="fill:#f0f0f0"></path><polygon points="339.3 72.9 340.74 72.05 340.74 42.69 339.3 41.85 339.3 72.9" style="fill:#e0e0e0"></polygon><polygon points="336.59 37.15 338.05 36.32 372.95 56.47 371.49 57.3 336.59 37.15" style="fill:#fafafa"></polygon><polygon points="372.95 56.47 371.49 57.3 371.49 94.62 372.95 93.78 372.95 56.47" style="fill:#e0e0e0"></polygon></g><g id="freepik--land--inject-5"><polygon points="341.83 71.17 367.69 86.09 367.69 78.63 361.22 63.71 357.2 67.44 358.65 73.69 349.72 54.6 341.83 63.71 341.83 71.17" style="fill:#f0f0f0"></polygon><path d="M357.44,56.5a4.21,4.21,0,0,1,1.91,3.31c0,1.22-.85,1.71-1.91,1.1a4.19,4.19,0,0,1-1.91-3.31C355.53,56.38,356.38,55.89,357.44,56.5Z" style="fill:#f0f0f0"></path></g></g><g id="freepik--picture--inject-5"><g id="freepik--frame--inject-5"><polygon points="136.69 143.03 138.12 143.88 167.6 126.86 166.16 126.01 136.69 143.03" style="fill:#fafafa"></polygon><polygon points="166.16 126.01 138.12 142.19 138.12 112.83 166.17 96.65 166.16 126.01" style="fill:#fff"></polygon><path d="M170.31,91.11l-34.9,20.15v37.32l34.9-20.15Zm-2.71,35.75-29.48,17v-31l29.48-17Z" style="fill:#f0f0f0"></path><polygon points="167.6 126.86 166.16 126.01 166.17 96.65 167.6 95.81 167.6 126.86" style="fill:#e0e0e0"></polygon><polygon points="170.31 91.11 168.85 90.28 133.95 110.43 135.41 111.26 170.31 91.11" style="fill:#fafafa"></polygon><polygon points="133.95 110.43 135.41 111.26 135.41 148.58 133.95 147.74 133.95 110.43" style="fill:#e0e0e0"></polygon></g><g id="freepik--land--inject-5"><polygon points="165.07 125.13 139.22 140.06 139.22 132.59 145.68 117.67 149.71 121.4 148.26 127.65 157.19 108.56 165.07 117.67 165.07 125.13" style="fill:#f0f0f0"></polygon><path d="M149.46,110.46a4.24,4.24,0,0,0-1.91,3.31c0,1.22.86,1.71,1.91,1.1a4.22,4.22,0,0,0,1.92-3.31C151.38,110.34,150.52,109.85,149.46,110.46Z" style="fill:#f0f0f0"></path></g></g></g><g id="freepik--Shelves--inject-5"><g id="freepik--shelves--inject-5"><g id="freepik--Shelf--inject-5"><polygon points="263.27 118.32 240.84 105.37 181.78 139.43 181.79 141.9 204.21 154.84 263.27 120.78 263.27 118.32" style="fill:#ebebeb"></polygon><polygon points="204.21 152.38 263.27 118.32 240.84 105.37 181.78 139.43 204.21 152.38" style="fill:#fafafa"></polygon><polygon points="204.21 152.38 204.21 154.84 181.79 141.9 181.78 139.43 204.21 152.38" style="fill:#e6e6e6"></polygon><polygon points="247.59 84.03 260.75 91.63 260.75 116.66 247.59 109.06 247.59 84.03" style="fill:#ebebeb"></polygon><path d="M260.32,92l-12.73-7.3a5.4,5.4,0,0,1-2.91,1.59l12.62,7.28A13.07,13.07,0,0,0,260.32,92Z" style="fill:#fff"></path><path d="M256.08,93.56a2.71,2.71,0,0,0,2.45,0l2.14-1.23c.68-.39.68-1,0-1.4l-12.55-7.21-.53.31,12.34,7.13a.44.44,0,0,1,0,.84l-2,1.13a1.65,1.65,0,0,1-1.47,0L244.13,86l-.6.35Z" style="fill:#fafafa"></path><path d="M243.53,86.36v25l12.55,7.2a2.71,2.71,0,0,0,2.45,0l2.14-1.23a.85.85,0,0,0,.51-.7v-25a.85.85,0,0,1-.51.7l-2.14,1.23a2.71,2.71,0,0,1-2.45,0Z" style="fill:#e0e0e0"></path><path d="M257.3,93.85a2.46,2.46,0,0,0,1.23-.29l2.14-1.23a.85.85,0,0,0,.51-.7v25a.85.85,0,0,1-.51.7l-2.14,1.23a2.46,2.46,0,0,1-1.23.29Z" style="fill:#f0f0f0"></path><polygon points="242.07 87.82 255.23 95.42 251.14 121.21 237.98 113.61 242.07 87.82" style="fill:#ebebeb"></polygon><path d="M254.71,95.78,242,88.47a7,7,0,0,1-3.39,1.31l12.63,7.28A16.51,16.51,0,0,0,254.71,95.78Z" style="fill:#fff"></path><path d="M249.89,97a3.41,3.41,0,0,0,2.65.12l2.5-1c.79-.32.88-.9.21-1.29l-12.56-7.2-.62.25L254.41,95c.41.23.35.58-.12.77l-2.32.94a2.06,2.06,0,0,1-1.6-.08L238,89.47l-.7.29Z" style="fill:#fafafa"></path><path d="M237.33,89.76l-4.08,25.78,12.55,7.21a3.42,3.42,0,0,0,2.65.12l2.51-1c.39-.17.61-.39.65-.62l4.09-25.79c0,.23-.26.46-.66.62l-2.5,1a3.41,3.41,0,0,1-2.65-.12Z" style="fill:#e0e0e0"></path><path d="M251.17,97.29a3.38,3.38,0,0,0,1.37-.21l2.5-1c.4-.16.62-.39.66-.62l-4.09,25.79c0,.23-.26.45-.65.62l-2.51,1a3.21,3.21,0,0,1-1.37.2Z" style="fill:#f0f0f0"></path><g id="freepik--Pot--inject-5"><path id="freepik--Shadow--inject-5" d="M237.27,120.79c3.1,1.78,3.1,4.68,0,6.47a12.37,12.37,0,0,1-11.21,0c-3.1-1.79-3.1-4.69,0-6.47A12.37,12.37,0,0,1,237.27,120.79Z" style="opacity:0.05"></path><path d="M226.62,125.29c-2.69-2.75-4.28-9.62-1.65-11.8h13.38c2.63,2.18,1.05,9.05-1.64,11.8l-.08.08-.09.09-.24.21-.07.06-.2.15a3.37,3.37,0,0,1-.35.22,8.88,8.88,0,0,1-8,0h0a2.56,2.56,0,0,1-.35-.22l-.19-.15-.08-.06-.24-.21-.1-.1A.46.46,0,0,1,226.62,125.29Z" style="fill:#f5f5f5"></path><path d="M237.19,112.45c3.06,1.76,3.06,4.62,0,6.38a12.22,12.22,0,0,1-11.05,0c-3.06-1.76-3.06-4.62,0-6.38A12.16,12.16,0,0,1,237.19,112.45Z" style="fill:#fff"></path><path d="M235,113.7c1.85,1.07,1.85,2.81,0,3.88a7.46,7.46,0,0,1-6.73,0c-1.86-1.07-1.86-2.81,0-3.88A7.39,7.39,0,0,1,235,113.7Z" style="fill:#ebebeb"></path><path d="M228.3,115.54a7.46,7.46,0,0,1,6.73,0,3.17,3.17,0,0,1,1.11,1,3.17,3.17,0,0,1-1.11,1,7.46,7.46,0,0,1-6.73,0,3.17,3.17,0,0,1-1.11-1A3.17,3.17,0,0,1,228.3,115.54Z" style="fill:#e0e0e0"></path><path d="M234.62,116.56a15.2,15.2,0,0,0,2.43-3.24c1.12-2,1.33-4.64.75-5s-2.94,2.32-2.94,2.32a14.61,14.61,0,0,0,.24-3.39c-.09-1.77-.53-3.37-1-3.7s-1.64,1.91-2.13,3.53-.78,2.94-.78,2.94a25,25,0,0,0-.87-3.72c-.59-1.68-1.12-2.06-1.54-1.89s-.69,1-.81,3.18a23.14,23.14,0,0,0,.1,3.21s-.83-.92-1.76-1.81-1.45-1.11-1.74-.92-.37,1.7,1.21,4.55a15.69,15.69,0,0,0,3,3.91S230.9,118,234.62,116.56Z" style="fill:#ebebeb"></path></g><polygon points="210.79 103.02 223.95 110.62 223.95 135.65 210.79 128.05 210.79 103.02" style="fill:#e0e0e0"></polygon><path d="M223.52,111l-12.73-7.3a5.46,5.46,0,0,1-2.91,1.59l12.62,7.27A12.6,12.6,0,0,0,223.52,111Z" style="fill:#fff"></path><path d="M219.28,112.55a2.71,2.71,0,0,0,2.45,0l2.14-1.23c.68-.39.68-1,0-1.4l-12.55-7.21-.53.31,12.34,7.13c.41.23.41.6,0,.84l-2,1.13a1.65,1.65,0,0,1-1.47,0L207.33,105l-.6.35Z" style="fill:#fafafa"></path><path d="M206.73,105.35v25l12.55,7.2a2.71,2.71,0,0,0,2.45,0l2.14-1.23a.85.85,0,0,0,.51-.7v-25a.87.87,0,0,1-.51.7l-2.14,1.23a2.71,2.71,0,0,1-2.45,0Z" style="fill:#e0e0e0"></path><path d="M220.5,112.84a2.46,2.46,0,0,0,1.23-.29l2.14-1.23a.87.87,0,0,0,.51-.7v25a.85.85,0,0,1-.51.7l-2.14,1.23a2.57,2.57,0,0,1-1.23.29Z" style="fill:#f0f0f0"></path><polygon points="205.41 106.11 218.56 113.71 218.56 138.74 205.41 131.14 205.41 106.11" style="fill:#ebebeb"></polygon><path d="M218.14,114.12l-12.73-7.31a5.41,5.41,0,0,1-2.91,1.6l12.62,7.27A12.6,12.6,0,0,0,218.14,114.12Z" style="fill:#fff"></path><path d="M213.9,115.64a2.71,2.71,0,0,0,2.45,0l2.14-1.23a.75.75,0,0,0,0-1.41l-12.55-7.2-.53.31,12.34,7.12c.41.24.41.61,0,.85l-2,1.13a1.65,1.65,0,0,1-1.47,0L202,108.09l-.6.35Z" style="fill:#fafafa"></path><path d="M201.35,108.44v25l12.55,7.2a2.71,2.71,0,0,0,2.45,0l2.14-1.23a.87.87,0,0,0,.51-.7v-25a.87.87,0,0,1-.51.7l-2.14,1.23a2.71,2.71,0,0,1-2.45,0Z" style="fill:#e0e0e0"></path><path d="M215.12,115.93a2.6,2.6,0,0,0,1.23-.29l2.14-1.23a.87.87,0,0,0,.51-.7v25a.87.87,0,0,1-.51.7l-2.14,1.23a2.6,2.6,0,0,1-1.23.29Z" style="fill:#f0f0f0"></path><polygon points="200.09 111.42 213.25 119.02 209.16 144.8 196.01 137.2 200.09 111.42" style="fill:#ebebeb"></polygon><path d="M212.73,119.38,200,112.06a6.92,6.92,0,0,1-3.39,1.32l12.63,7.28A17.38,17.38,0,0,0,212.73,119.38Z" style="fill:#fff"></path><path d="M207.91,120.56a3.42,3.42,0,0,0,2.65.12l2.51-1c.79-.33.88-.9.2-1.29l-12.55-7.21-.63.26,12.35,7.12c.4.24.35.58-.13.77l-2.32.94a2,2,0,0,1-1.59-.07l-12.34-7.11-.71.28Z" style="fill:#fafafa"></path><path d="M195.35,113.35l-4.08,25.79,12.55,7.21a3.44,3.44,0,0,0,2.66.11l2.5-1c.39-.16.61-.38.65-.62L213.72,119c0,.23-.26.45-.65.61l-2.51,1a3.42,3.42,0,0,1-2.65-.12Z" style="fill:#e0e0e0"></path><path d="M209.19,120.89a3.38,3.38,0,0,0,1.37-.21l2.51-1c.39-.16.61-.38.65-.61l-4.09,25.78c0,.24-.26.46-.65.62l-2.5,1a3.24,3.24,0,0,1-1.37.21Z" style="fill:#f0f0f0"></path></g><g id="freepik--shelf--inject-5"><polygon points="263.27 69.74 240.84 56.79 181.78 90.85 181.79 93.31 204.21 106.26 263.27 72.2 263.27 69.74" style="fill:#ebebeb"></polygon><polygon points="204.21 103.8 263.27 69.74 240.84 56.79 181.78 90.85 204.21 103.8" style="fill:#fafafa"></polygon><polygon points="204.21 103.8 204.21 106.26 181.79 93.31 181.78 90.85 204.21 103.8" style="fill:#e6e6e6"></polygon><polygon points="244.29 33.07 258.83 41.47 258.83 69.14 244.29 60.74 244.29 33.07" style="fill:#ebebeb"></polygon><path d="M258.36,41.93l-14.07-8.08a5.88,5.88,0,0,1-3.22,1.76l14,8A13.81,13.81,0,0,0,258.36,41.93Z" style="fill:#fff"></path><path d="M253.67,43.61a3,3,0,0,0,2.71,0l2.37-1.36a.82.82,0,0,0,0-1.55l-13.87-8-.59.33L257.93,41c.45.26.45.67,0,.93l-2.2,1.25a1.8,1.8,0,0,1-1.63,0l-13.63-7.86-.67.38Z" style="fill:#fafafa"></path><path d="M239.8,35.65V63.31l13.87,8a3,3,0,0,0,2.71,0l2.37-1.36a.94.94,0,0,0,.56-.77V41.47a1,1,0,0,1-.56.78l-2.37,1.36a3,3,0,0,1-2.71,0Z" style="fill:#e0e0e0"></path><path d="M255,43.93a2.87,2.87,0,0,0,1.36-.32l2.37-1.36a1,1,0,0,0,.56-.78V69.14a.94.94,0,0,1-.56.77l-2.37,1.36a2.76,2.76,0,0,1-1.36.32Z" style="fill:#f0f0f0"></path><polygon points="238.64 37.88 253.18 46.28 248.66 74.78 234.12 66.38 238.64 37.88" style="fill:#ebebeb"></polygon><path d="M252.61,46.68l-14.08-8.09a7.66,7.66,0,0,1-3.75,1.46l14,8A18.78,18.78,0,0,0,252.61,46.68Z" style="fill:#fff"></path><path d="M247.28,48a3.76,3.76,0,0,0,2.93.13L253,47c.87-.35,1-1,.22-1.42l-13.87-8-.69.28,13.64,7.88c.45.25.39.63-.13.85l-2.57,1a2.27,2.27,0,0,1-1.76-.07L234.18,39.7l-.78.32Z" style="fill:#fafafa"></path><path d="M233.4,40l-4.52,28.5,13.88,8a3.8,3.8,0,0,0,2.93.14l2.77-1.13c.44-.18.68-.43.72-.69l4.52-28.5c0,.26-.29.5-.72.68l-2.77,1.14a3.8,3.8,0,0,1-2.93-.14Z" style="fill:#e0e0e0"></path><path d="M248.7,48.34a3.72,3.72,0,0,0,1.51-.22L253,47c.43-.18.68-.42.72-.68l-4.52,28.5c0,.26-.28.51-.72.69l-2.77,1.13a3.69,3.69,0,0,1-1.51.22Z" style="fill:#f0f0f0"></path><g id="freepik--picture--inject-5"><g id="freepik--frame--inject-5"><polygon points="214.47 89.65 215.51 90.15 234.59 79.13 233.56 78.64 214.47 89.65" style="fill:#fafafa"></polygon><polygon points="233.56 78.64 215.41 89.11 212.76 61.97 230.92 51.49 233.56 78.64" style="fill:#fff"></polygon><path d="M233.41,48l-22.59,13,3.12,32,22.59-13Zm1.18,31.11-19.08,11L212.76,62l19.08-11Z" style="fill:#f0f0f0"></path><polygon points="234.59 79.13 233.56 78.64 230.92 51.49 231.84 50.95 234.59 79.13" style="fill:#e0e0e0"></polygon><polygon points="233.41 48.02 232.37 47.53 209.78 60.58 210.82 61.06 233.41 48.02" style="fill:#fafafa"></polygon><polygon points="209.78 60.58 210.82 61.06 213.94 93.08 212.89 92.6 209.78 60.58" style="fill:#e0e0e0"></polygon></g><g id="freepik--land--inject-5"><polygon points="232.76 78.12 216.02 87.78 215.58 83.21 218.69 69.77 221.66 74.36 221.04 78.22 225.99 63.96 232.31 73.55 232.76 78.12" style="fill:#f0f0f0"></polygon><path d="M218.43,64.11a2.38,2.38,0,0,0-1.1,2.07c.07.75.68,1,1.37.64a2.34,2.34,0,0,0,1.1-2.07C219.73,64,219.12,63.72,218.43,64.11Z" style="fill:#f0f0f0"></path></g></g><g id="freepik--pot--inject-5"><path id="freepik--shadow--inject-5" d="M205.08,87.77c3.09,1.79,3.09,4.68,0,6.47a12.39,12.39,0,0,1-11.22,0c-3.09-1.79-3.09-4.68,0-6.47A12.37,12.37,0,0,1,205.08,87.77Z" style="opacity:0.05"></path><path d="M194.43,92.28c-2.7-2.75-4.28-9.62-1.65-11.81h13.38c2.63,2.19,1.05,9-1.65,11.8l-.07.08-.09.09-.25.22-.06,0-.21.15a3.26,3.26,0,0,1-.34.22,8.9,8.9,0,0,1-8,0h0l-.35-.22a1.33,1.33,0,0,0-.19-.14l-.08-.07-.23-.2-.11-.11Z" style="fill:#f5f5f5"></path><path d="M205,79.43c3.05,1.76,3.05,4.62,0,6.38a12.24,12.24,0,0,1-11.06,0c-3.05-1.76-3.05-4.62,0-6.38A12.24,12.24,0,0,1,205,79.43Z" style="fill:#fff"></path><path d="M202.83,80.68c1.86,1.07,1.86,2.81,0,3.88a7.44,7.44,0,0,1-6.72,0c-1.86-1.07-1.86-2.81,0-3.88A7.44,7.44,0,0,1,202.83,80.68Z" style="fill:#ebebeb"></path><path d="M196.11,82.52a7.44,7.44,0,0,1,6.72,0,3.12,3.12,0,0,1,1.12,1,3.12,3.12,0,0,1-1.12,1,7.44,7.44,0,0,1-6.72,0,3.12,3.12,0,0,1-1.12-1A3.12,3.12,0,0,1,196.11,82.52Z" style="fill:#e0e0e0"></path><path d="M202.42,83.54a15.51,15.51,0,0,0,2.44-3.23c1.12-2,1.33-4.65.75-5s-3,2.33-3,2.33a14.36,14.36,0,0,0,.25-3.39c-.1-1.77-.53-3.38-1-3.71s-1.64,1.91-2.12,3.53-.78,3-.78,3a25,25,0,0,0-.87-3.73c-.59-1.68-1.13-2-1.54-1.89s-.69,1-.81,3.19a21.4,21.4,0,0,0,.1,3.2s-.83-.92-1.76-1.81-1.45-1.11-1.74-.92-.37,1.7,1.2,4.55a16,16,0,0,0,3,3.91S198.7,85,202.42,83.54Z" style="fill:#ebebeb"></path></g></g></g></g><g id="freepik--Shadows--inject-5"><path id="freepik--shadow--inject-5" d="M343.83,252l36.36-21a.94.94,0,0,0,0-1.77l-59.4-34.49a3.4,3.4,0,0,0-3.06,0l-36.36,21a.93.93,0,0,0,0,1.77L340.77,252A3.37,3.37,0,0,0,343.83,252Z" style="fill:#ebebeb"></path><g id="freepik--shadow--inject-5"><path d="M267.09,447.27,264.9,443a1.64,1.64,0,0,0-.85-.56c-2-.17-3.93-.44-5.81-.79a1.27,1.27,0,0,0-.28,0,3,3,0,0,0-1.37.31l-5.74,3.83a6.27,6.27,0,0,1-3.41.95,5.91,5.91,0,0,1-2.26-.42l-8.64-3.59A3.8,3.8,0,0,1,234.2,440a3.76,3.76,0,0,1,1-3.38l3.31-3.58a25.62,25.62,0,0,1-2.07-1.93,2.64,2.64,0,0,0-1.36-.66l-10,.29a5.13,5.13,0,0,1-4.78-3.51l-1.54-4.83a4.16,4.16,0,0,1,.38-3.45,4.11,4.11,0,0,1,2.85-1.88l9.27-1.5a.84.84,0,0,0,.35-.45,14.54,14.54,0,0,1,.65-1.85l-6.5-3.36a3.78,3.78,0,0,1-2.1-2.9,3.7,3.7,0,0,1,1.39-3.26l5.44-4.57a6.18,6.18,0,0,1,3.9-1.34,5.65,5.65,0,0,1,1.73.26l8.4,2.76a2,2,0,0,0,.64.08,3.41,3.41,0,0,0,1.18-.19,45.29,45.29,0,0,1,4.56-1.67l-.52-4a4.28,4.28,0,0,1,.9-3.28,4.23,4.23,0,0,1,2.95-1.59l10.74-1,.43,0a5.56,5.56,0,0,1,4.77,2.89l2.19,4.26a1.54,1.54,0,0,0,.84.55c2,.18,3.92.45,5.82.8a1.27,1.27,0,0,0,.28,0,3,3,0,0,0,1.37-.31l5.74-3.83a6.19,6.19,0,0,1,3.41-1,5.91,5.91,0,0,1,2.26.43l8.64,3.59a3.8,3.8,0,0,1,2.34,2.69,3.76,3.76,0,0,1-1,3.38l-3.31,3.58a25.38,25.38,0,0,1,2.07,1.93,2.62,2.62,0,0,0,1.36.65l10-.28a5.14,5.14,0,0,1,4.78,3.5L318.5,417a4.12,4.12,0,0,1-.39,3.45,4.07,4.07,0,0,1-2.84,1.88L306,423.8a.91.91,0,0,0-.35.46,15,15,0,0,1-.65,1.84l6.49,3.36a3.77,3.77,0,0,1,2.11,2.91,3.7,3.7,0,0,1-1.39,3.26l-5.44,4.57a6.19,6.19,0,0,1-3.91,1.34,5.34,5.34,0,0,1-1.72-.27l-8.39-2.75a2.13,2.13,0,0,0-.65-.08,3.41,3.41,0,0,0-1.18.19,45.29,45.29,0,0,1-4.56,1.67l.52,4a4.38,4.38,0,0,1-.9,3.28,4.27,4.27,0,0,1-3,1.59l-10.74,1-.43,0A5.55,5.55,0,0,1,267.09,447.27Zm-13.84-32.74c-1.41,1.19-3,3.12-2.65,5.55.41,2.7,3.18,5.36,7.39,7.11a29.46,29.46,0,0,0,11.19,2.1c6,0,11.57-1.65,14.85-4.4,1.42-1.19,3-3.13,2.66-5.56-.41-2.69-3.18-5.35-7.39-7.1a29.46,29.46,0,0,0-11.19-2.1C262.09,410.13,256.54,411.78,253.25,414.53Z" style="fill:#ebebeb"></path></g><g id="freepik--shadow--inject-5"><path d="M333,395l-1.43-2.77a0,0,0,0,1,0,0h0c-1.35-.13-2.68-.31-4-.55a1.86,1.86,0,0,0-.48.08l-3.86,2.57a5.14,5.14,0,0,1-4.56.44l-5.82-2.42a3.38,3.38,0,0,1-2-2.38,3.31,3.31,0,0,1,.87-3l1.66-1.8-.82-.79c-.08-.08-.3-.19-.31-.21l-6.72.2a4.28,4.28,0,0,1-4-2.92l-1-3.26a3.52,3.52,0,0,1,2.81-4.61l5.89-1c0-.14.09-.28.13-.42l-3.72-1.93a3.24,3.24,0,0,1-.63-5.48l3.66-3.07a4.92,4.92,0,0,1,3.14-1.08,4.62,4.62,0,0,1,1.41.21l5.62,1.85a1.37,1.37,0,0,0,.21,0,1.39,1.39,0,0,0,.47-.07c.8-.34,1.64-.66,2.51-.94l-.27-2a3.73,3.73,0,0,1,.78-2.81,3.59,3.59,0,0,1,2.53-1.37l7.23-.68.36,0a4.56,4.56,0,0,1,3.92,2.38L338,360v0h0c1.33.12,2.66.3,4,.54a1.91,1.91,0,0,0,.47-.07l3.86-2.58a5,5,0,0,1,2.74-.78,4.77,4.77,0,0,1,1.83.35l5.81,2.42a3.28,3.28,0,0,1,1.19,5.36l-1.67,1.8c.29.27.56.53.82.8a1.68,1.68,0,0,0,.32.2l6.72-.19a4.28,4.28,0,0,1,4,2.92l1,3.25a3.53,3.53,0,0,1-2.81,4.62l-5.89.95c0,.14-.08.28-.13.43L364,382a3.23,3.23,0,0,1,.62,5.47L361,390.49a5,5,0,0,1-3.15,1.09,4.28,4.28,0,0,1-1.4-.22l-5.63-1.85h-.21a1.63,1.63,0,0,0-.47.06c-.8.34-1.64.66-2.5.95l.26,2a3.73,3.73,0,0,1-.78,2.81,3.63,3.63,0,0,1-2.53,1.37l-7.22.68H337A4.57,4.57,0,0,1,333,395Zm-1.42-2.8h0Zm-6.65-19a3.47,3.47,0,0,0-1.51,3c.24,1.53,1.91,3.09,4.48,4.16a19.06,19.06,0,0,0,7.22,1.35c3.87,0,7.41-1,9.47-2.78a3.43,3.43,0,0,0,1.51-3c-.23-1.54-1.91-3.09-4.48-4.16a18.84,18.84,0,0,0-7.22-1.35C330.58,370.46,327,371.49,325,373.23ZM338,360h0Z" style="fill:#ebebeb"></path></g><ellipse id="freepik--shadow--inject-5" cx="76.49" cy="419.68" rx="58.86" ry="33.98" style="fill:#ebebeb"></ellipse><path id="freepik--shadow--inject-5" d="M162.62,416.37,86.8,373a1,1,0,0,1,0-1.9L309.62,242.4a3.66,3.66,0,0,1,3.29,0l75.82,43.37a1,1,0,0,1,0,1.9L165.91,416.37A3.66,3.66,0,0,1,162.62,416.37Z" style="fill:#ebebeb"></path><path id="freepik--shadow--inject-5" d="M401.24,258.48c9.76,5.7,9.76,14.94,0,20.65s-25.61,5.7-35.37,0-9.77-14.95,0-20.65S391.47,252.77,401.24,258.48Z" style="fill:#ebebeb"></path><ellipse id="freepik--shadow--inject-5" cx="425.59" cy="419.6" rx="58.99" ry="34.06" style="fill:#ebebeb"></ellipse></g><g id="freepik--Furniture--inject-5"><g id="freepik--Cabinet--inject-5"><g id="freepik--cabinet--inject-5"><polygon points="341.87 248.58 375.43 229.21 375.43 124.03 341.87 143.41 341.87 248.58" style="fill:#e0e0e0"></polygon><polygon points="341.87 143.41 284.33 110.19 284.33 215.36 341.87 248.58 341.87 143.41" style="fill:#ebebeb"></polygon><polygon points="284.33 110.19 341.87 143.41 375.43 124.03 317.89 90.81 284.33 110.19" style="fill:#f5f5f5"></polygon><polygon points="337.08 211.57 289.13 183.88 289.13 210.54 288.25 211.05 336.2 238.74 337.08 238.23 337.08 211.57" style="fill:#e0e0e0"></polygon><polygon points="336.2 212.08 288.24 184.4 288.25 211.05 336.2 238.74 336.2 212.08" style="fill:#f5f5f5"></polygon><path d="M317.78,206l-6.52-3.76c-.85-.49-1.54-.27-1.54.5a3.08,3.08,0,0,0,1.54,2.27l6.52,3.76c.85.49,1.53.27,1.53-.5A3.07,3.07,0,0,0,317.78,206Z" style="fill:#e0e0e0"></path><polygon points="337.08 179.39 289.13 151.7 289.13 178.35 288.25 178.87 336.2 206.55 337.08 206.04 337.08 179.39" style="fill:#e0e0e0"></polygon><polygon points="336.2 179.9 288.24 152.21 288.25 178.87 336.2 206.55 336.2 179.9" style="fill:#f5f5f5"></polygon><path d="M317.78,173.78,311.26,170c-.85-.48-1.54-.26-1.54.5a3.06,3.06,0,0,0,1.54,2.27l6.52,3.77c.85.49,1.53.26,1.53-.5A3.05,3.05,0,0,0,317.78,173.78Z" style="fill:#e0e0e0"></path><polygon points="337.08 147.2 289.13 119.52 289.13 146.17 288.25 146.68 336.2 174.37 337.08 173.86 337.08 147.2" style="fill:#e0e0e0"></polygon><polygon points="336.2 147.71 288.25 120.03 288.25 146.68 336.2 174.37 336.2 147.71" style="fill:#f5f5f5"></polygon><path d="M317.78,141.59l-6.52-3.76c-.85-.49-1.53-.27-1.53.5a3.07,3.07,0,0,0,1.53,2.27l6.52,3.76c.85.49,1.53.27,1.53-.5A3.07,3.07,0,0,0,317.78,141.59Z" style="fill:#e0e0e0"></path></g></g></g><g id="freepik--Gears--inject-5"><g id="freepik--Gear--inject-5"><path d="M226.23,405h0a1.31,1.31,0,0,0,.79,1.13l3,1.54,1.73-.28a3.09,3.09,0,0,0,2.26-2.19,14.38,14.38,0,0,1,.69-1.89,2,2,0,0,0-.83-2.57l-7-3.59a1.33,1.33,0,0,1-.79-1.09Zm25.45-3c-4,3.4-4.58,7.64-2.07,11.28a12.85,12.85,0,0,1,2.18-2.31c6.4-5.37,19.19-6.57,28.56-2.68a16.54,16.54,0,0,1,7.41,5.48c3.46-5.05.56-11.1-7.52-14.46C270.87,395.46,258.08,396.66,251.68,402Zm-30.54,17.47h0a1.58,1.58,0,0,0,.09.55l1.53,4.84a2.73,2.73,0,0,0,2.5,1.8l9.84-.29a3.8,3.8,0,0,1,1.52.33h0a3.7,3.7,0,0,1,.84.43l3.37-3.63a1.7,1.7,0,0,0-.28-2.55,23.8,23.8,0,0,1-2.37-2.16,5.13,5.13,0,0,0-1.66-1.08,3.89,3.89,0,0,0-1.54-.33l-9.83.3a2.73,2.73,0,0,1-2.5-1.81l-1.55-4.85a2.38,2.38,0,0,1-.09-.51Zm79.57-29.8a1.47,1.47,0,0,1-.4.78l-3.86,4.16a1.69,1.69,0,0,0,.27,2.55,22.68,22.68,0,0,1,2.38,2.16,4.24,4.24,0,0,0,.82.64l.49-.54a1.38,1.38,0,0,0,.41-1h0Zm-64,48a1.33,1.33,0,0,0,.15.55,1.47,1.47,0,0,0,.75.62l8.65,3.6a1.52,1.52,0,0,0,.38.11,1.28,1.28,0,0,0,.28.07,4.8,4.8,0,0,0,1.31,0l.29-.06h0a3.25,3.25,0,0,0,1.11-.42l5.74-3.82a5.32,5.32,0,0,1,3.47-.67c1.84.35,3.71.6,5.57.77a3.74,3.74,0,0,1,1.89.8,4.37,4.37,0,0,1,.49.47,2.43,2.43,0,0,1,.2.25,1.69,1.69,0,0,1,.23.36l2.19,4.25.06.1a2.35,2.35,0,0,0,.23.32,2,2,0,0,0,.24.26l0,0a2.91,2.91,0,0,0,.33.26,3.28,3.28,0,0,0,.71.39,2.8,2.8,0,0,0,1.2.19l10.74-1a1.84,1.84,0,0,0,1.66-1.83l-.08-6.09a2.27,2.27,0,0,1,1.11-.77,43.52,43.52,0,0,0,4.46-1.62,5.75,5.75,0,0,1,3.55-.2l.1,0,8.3,2.74a2.36,2.36,0,0,0,.46.1h.07a1.61,1.61,0,0,0,.49,0,3.65,3.65,0,0,0,2.28-.75l5.43-4.57a1.44,1.44,0,0,0,.54-1l-.12-8.93a1.33,1.33,0,0,1-.53.93l-5.43,4.57a3.08,3.08,0,0,1-1.2.6,3.76,3.76,0,0,1-2.1,0l-8.3-2.73-.09,0a5.78,5.78,0,0,0-3.56.19,39.22,39.22,0,0,1-4.46,1.61,2.34,2.34,0,0,0-1.59,2.45l.55,4.15a1.85,1.85,0,0,1-1.65,2.11l-10.73,1a2.72,2.72,0,0,1-1.21-.19,3.05,3.05,0,0,1-1.59-1.36l-2.2-4.27a3.28,3.28,0,0,0-.92-1.06,3.67,3.67,0,0,0-1.88-.8c-1.87-.17-3.74-.43-5.58-.77a5.28,5.28,0,0,0-3.46.66l-5.74,3.83a3,3,0,0,1-1.12.43,4,4,0,0,1-2.25-.12l-8.64-3.6a1.3,1.3,0,0,1-.91-1.17Zm68.87-26.88a3.15,3.15,0,0,0-2.26,2.21,12.85,12.85,0,0,1-.69,1.87,2,2,0,0,0,.82,2.58l4,2.05,7.6-1.23a1.57,1.57,0,0,0,1.37-1.56h0l-.11-9a1.57,1.57,0,0,1-1.38,1.56Z" style="fill:#e6e6e6"></path><path d="M226.23,405h0a1.31,1.31,0,0,0,.79,1.13l3,1.54,1.73-.28a3.09,3.09,0,0,0,2.26-2.19,14.38,14.38,0,0,1,.69-1.89,2,2,0,0,0-.83-2.57l-7-3.59a1.33,1.33,0,0,1-.79-1.09Zm25.45-3c-4,3.4-4.58,7.64-2.07,11.28a12.85,12.85,0,0,1,2.18-2.31c6.4-5.37,19.19-6.57,28.56-2.68a16.54,16.54,0,0,1,7.41,5.48c3.46-5.05.56-11.1-7.52-14.46C270.87,395.46,258.08,396.66,251.68,402Zm-30.54,17.47h0a1.58,1.58,0,0,0,.09.55l1.53,4.84a2.73,2.73,0,0,0,2.5,1.8l9.84-.29a3.8,3.8,0,0,1,1.52.33h0a3.7,3.7,0,0,1,.84.43l3.37-3.63a1.7,1.7,0,0,0-.28-2.55,23.8,23.8,0,0,1-2.37-2.16,5.13,5.13,0,0,0-1.66-1.08,3.89,3.89,0,0,0-1.54-.33l-9.83.3a2.73,2.73,0,0,1-2.5-1.81l-1.55-4.85a2.38,2.38,0,0,1-.09-.51Zm79.57-29.8a1.47,1.47,0,0,1-.4.78l-3.86,4.16a1.69,1.69,0,0,0,.27,2.55,22.68,22.68,0,0,1,2.38,2.16,4.24,4.24,0,0,0,.82.64l.49-.54a1.38,1.38,0,0,0,.41-1h0Zm-64,48a1.33,1.33,0,0,0,.15.55,1.47,1.47,0,0,0,.75.62l8.65,3.6a1.52,1.52,0,0,0,.38.11,1.28,1.28,0,0,0,.28.07,4.8,4.8,0,0,0,1.31,0l.29-.06h0a3.25,3.25,0,0,0,1.11-.42l5.74-3.82a5.32,5.32,0,0,1,3.47-.67c1.84.35,3.71.6,5.57.77a3.74,3.74,0,0,1,1.89.8,4.37,4.37,0,0,1,.49.47,2.43,2.43,0,0,1,.2.25,1.69,1.69,0,0,1,.23.36l2.19,4.25.06.1a2.35,2.35,0,0,0,.23.32,2,2,0,0,0,.24.26l0,0a2.91,2.91,0,0,0,.33.26,3.28,3.28,0,0,0,.71.39,2.8,2.8,0,0,0,1.2.19l10.74-1a1.84,1.84,0,0,0,1.66-1.83l-.08-6.09a2.27,2.27,0,0,1,1.11-.77,43.52,43.52,0,0,0,4.46-1.62,5.75,5.75,0,0,1,3.55-.2l.1,0,8.3,2.74a2.36,2.36,0,0,0,.46.1h.07a1.61,1.61,0,0,0,.49,0,3.65,3.65,0,0,0,2.28-.75l5.43-4.57a1.44,1.44,0,0,0,.54-1l-.12-8.93a1.33,1.33,0,0,1-.53.93l-5.43,4.57a3.08,3.08,0,0,1-1.2.6,3.76,3.76,0,0,1-2.1,0l-8.3-2.73-.09,0a5.78,5.78,0,0,0-3.56.19,39.22,39.22,0,0,1-4.46,1.61,2.34,2.34,0,0,0-1.59,2.45l.55,4.15a1.85,1.85,0,0,1-1.65,2.11l-10.73,1a2.72,2.72,0,0,1-1.21-.19,3.05,3.05,0,0,1-1.59-1.36l-2.2-4.27a3.28,3.28,0,0,0-.92-1.06,3.67,3.67,0,0,0-1.88-.8c-1.87-.17-3.74-.43-5.58-.77a5.28,5.28,0,0,0-3.46.66l-5.74,3.83a3,3,0,0,1-1.12.43,4,4,0,0,1-2.25-.12l-8.64-3.6a1.3,1.3,0,0,1-.91-1.17Zm68.87-26.88a3.15,3.15,0,0,0-2.26,2.21,12.85,12.85,0,0,1-.69,1.87,2,2,0,0,0,.82,2.58l4,2.05,7.6-1.23a1.57,1.57,0,0,0,1.37-1.56h0l-.11-9a1.57,1.57,0,0,1-1.38,1.56Z" style="opacity:0.1"></path><path d="M293.6,425.61l8.3,2.73a3.76,3.76,0,0,0,2.1,0l.11,9a5.06,5.06,0,0,1-1.08.17,1.61,1.61,0,0,1-.49,0h-.07a2.36,2.36,0,0,1-.46-.1l-8.3-2.74Z" style="fill:#e0e0e0"></path><path d="M266.15,430.22a3.28,3.28,0,0,1,.92,1.06l2.2,4.27a3.05,3.05,0,0,0,1.59,1.36l.11,9a3.28,3.28,0,0,1-.71-.39,2.91,2.91,0,0,1-.33-.26l0,0a2,2,0,0,1-.24-.26,2.35,2.35,0,0,1-.23-.32l-.06-.1-2.19-4.25a1.69,1.69,0,0,0-.23-.36l-.2-.25c-.15-.15-.32-.3-.49-.44v0Z" style="fill:#e0e0e0"></path><path d="M226.12,396.08a1.27,1.27,0,0,0,.8,1.08l7,3.6a1.94,1.94,0,0,1,.81,2.58,12.49,12.49,0,0,0-.68,1.88,3.13,3.13,0,0,1-2.26,2.19l-1.73.28-3-1.54a1.29,1.29,0,0,1-.79-1.12h0Z" style="fill:#e0e0e0"></path><path d="M221,410.56a2.38,2.38,0,0,0,.09.51l1.55,4.85a2.73,2.73,0,0,0,2.5,1.81l9.83-.3a3.89,3.89,0,0,1,1.54.33l.09,9a3.8,3.8,0,0,0-1.52-.33l-9.84.29a2.73,2.73,0,0,1-2.5-1.8l-1.53-4.84a1.58,1.58,0,0,1-.09-.55h0Z" style="fill:#e0e0e0"></path><path d="M236.57,428.68a1.3,1.3,0,0,0,.91,1.17l8.64,3.6a4,4,0,0,0,2.25.12l.12,9-.29.06a4.8,4.8,0,0,1-1.31,0,1.28,1.28,0,0,1-.28-.07,1.52,1.52,0,0,1-.38-.11l-8.65-3.6a1.47,1.47,0,0,1-.75-.62,1.33,1.33,0,0,1-.15-.55Z" style="fill:#e0e0e0"></path><path d="M232.09,390.48l-5.43,4.57a1.19,1.19,0,0,0,.26,2.12l6.94,3.59a1.94,1.94,0,0,1,.82,2.58,13.57,13.57,0,0,0-.68,1.87,3.12,3.12,0,0,1-2.26,2.2l-9.33,1.51a1.61,1.61,0,0,0-1.29,2.16l1.55,4.84a2.72,2.72,0,0,0,2.5,1.8l9.83-.29a4.89,4.89,0,0,1,3.19,1.41,26.41,26.41,0,0,0,2.38,2.16,1.7,1.7,0,0,1,.27,2.55L237,427.71a1.25,1.25,0,0,0,.49,2.14l8.64,3.6a4,4,0,0,0,3.37-.31l5.74-3.83a5.33,5.33,0,0,1,3.46-.66c1.84.34,3.71.6,5.58.76a3.91,3.91,0,0,1,2.81,1.88l2.19,4.25a3.07,3.07,0,0,0,2.79,1.56l10.74-1a1.85,1.85,0,0,0,1.65-2.11l-.54-4.14a2.31,2.31,0,0,1,1.58-2.45,42.68,42.68,0,0,0,4.46-1.62,5.78,5.78,0,0,1,3.56-.19l8.4,2.75a3.76,3.76,0,0,0,3.28-.62l5.44-4.56a1.19,1.19,0,0,0-.26-2.12l-6.94-3.59a1.94,1.94,0,0,1-.82-2.58,13.69,13.69,0,0,0,.68-1.88,3.13,3.13,0,0,1,2.26-2.19l9.33-1.51a1.62,1.62,0,0,0,1.29-2.16l-1.55-4.84a2.72,2.72,0,0,0-2.5-1.8l-9.83.28a4.89,4.89,0,0,1-3.2-1.41,23.63,23.63,0,0,0-2.37-2.15,1.69,1.69,0,0,1-.27-2.55l3.85-4.17a1.25,1.25,0,0,0-.49-2.14l-8.64-3.59a4,4,0,0,0-3.37.31l-5.74,3.83a5.33,5.33,0,0,1-3.46.66c-1.84-.35-3.71-.6-5.58-.77a3.86,3.86,0,0,1-2.81-1.87L268,382.66a3.07,3.07,0,0,0-2.79-1.56l-10.74,1a1.85,1.85,0,0,0-1.65,2.11l.54,4.14a2.31,2.31,0,0,1-1.58,2.45,40.52,40.52,0,0,0-4.46,1.62,5.86,5.86,0,0,1-3.56.19l-8.4-2.76A3.86,3.86,0,0,0,232.09,390.48Zm48.15,8.87c9.37,3.9,11.77,11.42,5.37,16.8s-19.19,6.59-28.56,2.69-11.78-11.42-5.37-16.8S270.87,395.46,280.24,399.35Z" style="fill:#f5f5f5"></path><path d="M265.43,382.14a2.08,2.08,0,0,1,1.66,1l2.19,4.25a4.88,4.88,0,0,0,3.64,2.44c1.86.17,3.7.42,5.48.75a4.59,4.59,0,0,0,.93.09,6.24,6.24,0,0,0,3.31-.91l5.74-3.82a2.83,2.83,0,0,1,1.47-.37,2.44,2.44,0,0,1,.91.15l8.65,3.59a.55.55,0,0,1,.26.2.49.49,0,0,1-.14.26l-3.86,4.16a2.75,2.75,0,0,0-.73,2.05,2.87,2.87,0,0,0,1.12,2,24.05,24.05,0,0,1,2.28,2.06,5.92,5.92,0,0,0,3.88,1.74h.1l9.83-.29h0a1.68,1.68,0,0,1,1.47,1.07l1.54,4.84a.65.65,0,0,1,0,.55.61.61,0,0,1-.42.25l-9.33,1.51a4.17,4.17,0,0,0-3.1,2.95,14.39,14.39,0,0,1-.63,1.73,3,3,0,0,0,1.29,3.94l6.94,3.6c.17.08.23.16.23.18a.42.42,0,0,1-.15.19l-5.44,4.57a2.76,2.76,0,0,1-1.66.51,2.28,2.28,0,0,1-.62-.08l-8.4-2.76a5.8,5.8,0,0,0-1.74-.25,6.81,6.81,0,0,0-2.57.47,42.67,42.67,0,0,1-4.35,1.59,3.38,3.38,0,0,0-2.32,3.58l.54,4.15a.78.78,0,0,1-.16.63.75.75,0,0,1-.54.29l-10.74,1h-.1a2.08,2.08,0,0,1-1.66-1L268,430.81a4.92,4.92,0,0,0-3.65-2.45,53.74,53.74,0,0,1-5.47-.75,5.46,5.46,0,0,0-.93-.08,6.24,6.24,0,0,0-3.31.91l-5.75,3.82a2.77,2.77,0,0,1-1.46.37,2.44,2.44,0,0,1-.91-.15l-8.65-3.6c-.17-.07-.25-.16-.26-.2s0-.13.14-.25l3.85-4.16a2.72,2.72,0,0,0,.74-2,2.87,2.87,0,0,0-1.12-2,22.84,22.84,0,0,1-2.28-2.07,6,6,0,0,0-3.88-1.73H235l-9.83.29h0a1.68,1.68,0,0,1-1.47-1.07l-1.55-4.84a.68.68,0,0,1,0-.55.58.58,0,0,1,.42-.25l9.33-1.51a4.17,4.17,0,0,0,3.1-2.95,12.38,12.38,0,0,1,.63-1.73,3,3,0,0,0-1.29-3.95l-6.95-3.59a.52.52,0,0,1-.23-.19,1,1,0,0,1,.16-.18l5.44-4.57a2.75,2.75,0,0,1,1.65-.52,2.27,2.27,0,0,1,.63.09l8.4,2.76a5.8,5.8,0,0,0,1.74.25,6.75,6.75,0,0,0,2.56-.48,43.75,43.75,0,0,1,4.36-1.58,3.38,3.38,0,0,0,2.32-3.58l-.55-4.15a.85.85,0,0,1,.17-.64.78.78,0,0,1,.54-.28l10.74-1h.1m3.75,40c6.92,0,13.16-1.9,17.11-5.22,3-2.5,4.35-5.62,3.86-8.77-.61-4-4.07-7.55-9.5-9.81A33.14,33.14,0,0,0,268.11,396c-6.92,0-13.16,1.9-17.11,5.22-3,2.5-4.35,5.61-3.86,8.77.61,4,4.07,7.54,9.5,9.8a33,33,0,0,0,12.54,2.37m-3.75-41.09h-.2l-10.74,1a1.85,1.85,0,0,0-1.65,2.11l.54,4.14a2.31,2.31,0,0,1-1.58,2.45,40.52,40.52,0,0,0-4.46,1.62,5.73,5.73,0,0,1-2.15.39,4.75,4.75,0,0,1-1.41-.2l-8.4-2.76a3.27,3.27,0,0,0-1-.14,3.83,3.83,0,0,0-2.33.76l-5.43,4.57a1.19,1.19,0,0,0,.26,2.12l6.94,3.59a1.94,1.94,0,0,1,.82,2.58,13.57,13.57,0,0,0-.68,1.87,3.12,3.12,0,0,1-2.26,2.2l-9.33,1.51a1.61,1.61,0,0,0-1.29,2.16l1.55,4.84a2.73,2.73,0,0,0,2.44,1.8h.06l9.83-.29h.07a4.92,4.92,0,0,1,3.12,1.41,26.41,26.41,0,0,0,2.38,2.16,1.7,1.7,0,0,1,.27,2.55L237,427.71a1.25,1.25,0,0,0,.49,2.14l8.64,3.6a3.52,3.52,0,0,0,1.32.23,3.92,3.92,0,0,0,2.05-.54l5.74-3.83a5.29,5.29,0,0,1,2.73-.73,3.35,3.35,0,0,1,.73.07c1.84.34,3.71.6,5.58.76a3.92,3.92,0,0,1,2.81,1.88l2.19,4.25a3.11,3.11,0,0,0,2.59,1.57h.2l10.74-1a1.85,1.85,0,0,0,1.65-2.11l-.54-4.14a2.31,2.31,0,0,1,1.58-2.45,42.68,42.68,0,0,0,4.46-1.62,5.73,5.73,0,0,1,2.15-.39,4.45,4.45,0,0,1,1.41.2l8.4,2.75a2.91,2.91,0,0,0,.95.14,3.72,3.72,0,0,0,2.33-.76l5.44-4.56a1.19,1.19,0,0,0-.26-2.12l-6.94-3.59a1.94,1.94,0,0,1-.82-2.58,13.69,13.69,0,0,0,.68-1.88,3.13,3.13,0,0,1,2.26-2.19l9.33-1.51a1.62,1.62,0,0,0,1.29-2.16l-1.55-4.84a2.72,2.72,0,0,0-2.45-1.8h-.05l-9.83.28h-.07a4.93,4.93,0,0,1-3.13-1.42,23.63,23.63,0,0,0-2.37-2.15,1.7,1.7,0,0,1-.27-2.55l3.85-4.17a1.25,1.25,0,0,0-.49-2.14l-8.64-3.59a3.52,3.52,0,0,0-1.32-.24,3.8,3.8,0,0,0-2.05.55l-5.74,3.83a5.41,5.41,0,0,1-2.73.72,4.15,4.15,0,0,1-.73-.06c-1.84-.35-3.71-.6-5.58-.77a3.86,3.86,0,0,1-2.81-1.87L268,382.66a3.11,3.11,0,0,0-2.59-1.57Zm3.75,40a31.88,31.88,0,0,1-12.13-2.29c-9.37-3.89-11.78-11.42-5.37-16.8,3.87-3.25,10.06-5,16.43-5a32.06,32.06,0,0,1,12.13,2.28c9.37,3.9,11.77,11.42,5.37,16.8-3.87,3.25-10.06,5-16.43,5Z" style="fill:#ebebeb"></path></g><g id="freepik--gear--inject-5"><path d="M306.28,366.37h0a.89.89,0,0,0,.52.76l2,1L310,368a2.09,2.09,0,0,0,1.52-1.47,8.8,8.8,0,0,1,.46-1.27,1.31,1.31,0,0,0-.56-1.73l-4.67-2.42a.87.87,0,0,1-.53-.73Zm17.11-2c-2.71,2.29-3.08,5.14-1.39,7.59a8.41,8.41,0,0,1,1.47-1.55c4.3-3.62,12.9-4.42,19.2-1.81a11.09,11.09,0,0,1,5,3.69c2.33-3.4.38-7.47-5-9.73C336.3,359.94,327.7,360.75,323.39,364.36Zm-20.53,11.75h0a1.24,1.24,0,0,0,.06.37l1,3.25a1.82,1.82,0,0,0,1.69,1.21l6.61-.19a2.61,2.61,0,0,1,1,.22h0a2.55,2.55,0,0,1,.57.29l2.26-2.44a1.15,1.15,0,0,0-.18-1.72,15.13,15.13,0,0,1-1.6-1.45,3.56,3.56,0,0,0-1.12-.73,2.69,2.69,0,0,0-1-.22l-6.61.2a1.85,1.85,0,0,1-1.69-1.21l-1-3.26a1.55,1.55,0,0,1-.07-.35Zm53.5-20a.88.88,0,0,1-.27.52l-2.59,2.8a1.15,1.15,0,0,0,.18,1.72,16.07,16.07,0,0,1,1.6,1.45,2.69,2.69,0,0,0,.55.43l.33-.37a.92.92,0,0,0,.28-.65h0Zm-43.05,32.25a.65.65,0,0,0,.1.36.92.92,0,0,0,.5.42l5.82,2.42a1,1,0,0,0,.25.08l.19,0a3.24,3.24,0,0,0,.88,0l.2,0h0a2.3,2.3,0,0,0,.75-.28l3.86-2.57a3.57,3.57,0,0,1,2.33-.45,36.33,36.33,0,0,0,3.75.51,2.55,2.55,0,0,1,1.27.55,3.26,3.26,0,0,1,.33.31,1.09,1.09,0,0,1,.13.17,1,1,0,0,1,.16.24l1.47,2.86,0,.06.15.22.17.18,0,0a1.28,1.28,0,0,0,.22.17,2,2,0,0,0,.47.26,1.94,1.94,0,0,0,.81.13l7.22-.68a1.23,1.23,0,0,0,1.12-1.23l-.05-4.09a1.42,1.42,0,0,1,.74-.52,29.46,29.46,0,0,0,3-1.09,3.91,3.91,0,0,1,2.39-.14l.07,0,5.58,1.84a1.55,1.55,0,0,0,.31.06h.05a1.2,1.2,0,0,0,.33,0,2.55,2.55,0,0,0,1.53-.5l3.65-3.08a.94.94,0,0,0,.36-.66l-.08-6a.91.91,0,0,1-.35.63l-3.66,3.07a2,2,0,0,1-.8.41,2.6,2.6,0,0,1-1.41,0l-5.58-1.84-.07,0a4,4,0,0,0-2.39.13,28,28,0,0,1-3,1.09,1.56,1.56,0,0,0-1.07,1.64l.37,2.79a1.25,1.25,0,0,1-1.11,1.42l-7.22.68a1.79,1.79,0,0,1-.81-.13,2.11,2.11,0,0,1-1.07-.92L333.74,384a2.08,2.08,0,0,0-.61-.72,2.63,2.63,0,0,0-1.27-.54c-1.26-.11-2.52-.28-3.75-.51a3.56,3.56,0,0,0-2.33.44l-3.86,2.57a2.11,2.11,0,0,1-.75.3,2.68,2.68,0,0,1-1.52-.09l-5.81-2.41a.88.88,0,0,1-.61-.79Zm46.31-18.08a2.12,2.12,0,0,0-1.52,1.48,8.27,8.27,0,0,1-.46,1.26,1.32,1.32,0,0,0,.55,1.74l2.66,1.38,5.11-.83a1.05,1.05,0,0,0,.92-1h0l-.07-6.06a1.06,1.06,0,0,1-.93,1.05Z" style="fill:#e6e6e6"></path><path d="M306.28,366.37h0a.89.89,0,0,0,.52.76l2,1L310,368a2.09,2.09,0,0,0,1.52-1.47,8.8,8.8,0,0,1,.46-1.27,1.31,1.31,0,0,0-.56-1.73l-4.67-2.42a.87.87,0,0,1-.53-.73Zm17.11-2c-2.71,2.29-3.08,5.14-1.39,7.59a8.41,8.41,0,0,1,1.47-1.55c4.3-3.62,12.9-4.42,19.2-1.81a11.09,11.09,0,0,1,5,3.69c2.33-3.4.38-7.47-5-9.73C336.3,359.94,327.7,360.75,323.39,364.36Zm-20.53,11.75h0a1.24,1.24,0,0,0,.06.37l1,3.25a1.82,1.82,0,0,0,1.69,1.21l6.61-.19a2.61,2.61,0,0,1,1,.22h0a2.55,2.55,0,0,1,.57.29l2.26-2.44a1.15,1.15,0,0,0-.18-1.72,15.13,15.13,0,0,1-1.6-1.45,3.56,3.56,0,0,0-1.12-.73,2.69,2.69,0,0,0-1-.22l-6.61.2a1.85,1.85,0,0,1-1.69-1.21l-1-3.26a1.55,1.55,0,0,1-.07-.35Zm53.5-20a.88.88,0,0,1-.27.52l-2.59,2.8a1.15,1.15,0,0,0,.18,1.72,16.07,16.07,0,0,1,1.6,1.45,2.69,2.69,0,0,0,.55.43l.33-.37a.92.92,0,0,0,.28-.65h0Zm-43.05,32.25a.65.65,0,0,0,.1.36.92.92,0,0,0,.5.42l5.82,2.42a1,1,0,0,0,.25.08l.19,0a3.24,3.24,0,0,0,.88,0l.2,0h0a2.3,2.3,0,0,0,.75-.28l3.86-2.57a3.57,3.57,0,0,1,2.33-.45,36.33,36.33,0,0,0,3.75.51,2.55,2.55,0,0,1,1.27.55,3.26,3.26,0,0,1,.33.31,1.09,1.09,0,0,1,.13.17,1,1,0,0,1,.16.24l1.47,2.86,0,.06.15.22.17.18,0,0a1.28,1.28,0,0,0,.22.17,2,2,0,0,0,.47.26,1.94,1.94,0,0,0,.81.13l7.22-.68a1.23,1.23,0,0,0,1.12-1.23l-.05-4.09a1.42,1.42,0,0,1,.74-.52,29.46,29.46,0,0,0,3-1.09,3.91,3.91,0,0,1,2.39-.14l.07,0,5.58,1.84a1.55,1.55,0,0,0,.31.06h.05a1.2,1.2,0,0,0,.33,0,2.55,2.55,0,0,0,1.53-.5l3.65-3.08a.94.94,0,0,0,.36-.66l-.08-6a.91.91,0,0,1-.35.63l-3.66,3.07a2,2,0,0,1-.8.41,2.6,2.6,0,0,1-1.41,0l-5.58-1.84-.07,0a4,4,0,0,0-2.39.13,28,28,0,0,1-3,1.09,1.56,1.56,0,0,0-1.07,1.64l.37,2.79a1.25,1.25,0,0,1-1.11,1.42l-7.22.68a1.79,1.79,0,0,1-.81-.13,2.11,2.11,0,0,1-1.07-.92L333.74,384a2.08,2.08,0,0,0-.61-.72,2.63,2.63,0,0,0-1.27-.54c-1.26-.11-2.52-.28-3.75-.51a3.56,3.56,0,0,0-2.33.44l-3.86,2.57a2.11,2.11,0,0,1-.75.3,2.68,2.68,0,0,1-1.52-.09l-5.81-2.41a.88.88,0,0,1-.61-.79Zm46.31-18.08a2.12,2.12,0,0,0-1.52,1.48,8.27,8.27,0,0,1-.46,1.26,1.32,1.32,0,0,0,.55,1.74l2.66,1.38,5.11-.83a1.05,1.05,0,0,0,.92-1h0l-.07-6.06a1.06,1.06,0,0,1-.93,1.05Z" style="opacity:0.1"></path><path d="M351.59,380.21l5.58,1.84a2.6,2.6,0,0,0,1.41,0l.07,6a3,3,0,0,1-.72.12,1.2,1.2,0,0,1-.33,0h-.05a1.55,1.55,0,0,1-.31-.06l-5.58-1.84Z" style="fill:#e0e0e0"></path><path d="M333.13,383.31a2.08,2.08,0,0,1,.61.72l1.48,2.86a2.11,2.11,0,0,0,1.07.92l.07,6a2,2,0,0,1-.47-.26,1.28,1.28,0,0,1-.22-.17l0,0-.17-.18-.15-.22,0-.06-1.47-2.86a1,1,0,0,0-.16-.24,1.09,1.09,0,0,0-.13-.17c-.1-.1-.22-.2-.33-.29v0Z" style="fill:#e0e0e0"></path><path d="M306.2,360.35a.88.88,0,0,0,.54.73l4.67,2.42a1.3,1.3,0,0,1,.55,1.73,9.25,9.25,0,0,0-.46,1.27A2.06,2.06,0,0,1,310,368l-1.16.19-2-1a.88.88,0,0,1-.54-.75h0Z" style="fill:#e0e0e0"></path><path d="M302.78,370.09a1.55,1.55,0,0,0,.07.35l1,3.26a1.85,1.85,0,0,0,1.69,1.21l6.61-.2a2.69,2.69,0,0,1,1,.22l.06,6a2.61,2.61,0,0,0-1-.22l-6.61.19a1.82,1.82,0,0,1-1.69-1.21l-1-3.25a1.24,1.24,0,0,1-.06-.37h0Z" style="fill:#e0e0e0"></path><path d="M313.23,382.28a.88.88,0,0,0,.61.79l5.81,2.41a2.68,2.68,0,0,0,1.52.09l.08,6-.2,0a3.24,3.24,0,0,1-.88,0l-.19,0a1,1,0,0,1-.25-.08l-5.82-2.42a.92.92,0,0,1-.5-.42.65.65,0,0,1-.1-.36Z" style="fill:#e0e0e0"></path><path d="M310.22,356.59l-3.65,3.07a.79.79,0,0,0,.17,1.42l4.67,2.42a1.29,1.29,0,0,1,.55,1.73,8.8,8.8,0,0,0-.46,1.27A2.08,2.08,0,0,1,310,368l-6.28,1a1.08,1.08,0,0,0-.87,1.45l1,3.25a1.84,1.84,0,0,0,1.69,1.22l6.6-.2a3.29,3.29,0,0,1,2.15,1,17.4,17.4,0,0,0,1.6,1.45,1.15,1.15,0,0,1,.19,1.72l-2.6,2.8a.84.84,0,0,0,.33,1.44l5.82,2.41a2.68,2.68,0,0,0,2.26-.21l3.86-2.57a3.63,3.63,0,0,1,2.33-.45,36,36,0,0,0,3.75.52,2.61,2.61,0,0,1,1.89,1.26l1.47,2.86a2.07,2.07,0,0,0,1.88,1.05l7.22-.68a1.24,1.24,0,0,0,1.11-1.42l-.37-2.79a1.56,1.56,0,0,1,1.07-1.64,30.36,30.36,0,0,0,3-1.09,3.91,3.91,0,0,1,2.39-.13l5.65,1.85a2.56,2.56,0,0,0,2.21-.41l3.66-3.08a.8.8,0,0,0-.18-1.42l-4.67-2.41a1.31,1.31,0,0,1-.55-1.74,8.68,8.68,0,0,0,.46-1.26,2.08,2.08,0,0,1,1.52-1.47l6.27-1a1.08,1.08,0,0,0,.87-1.45l-1-3.26a1.82,1.82,0,0,0-1.68-1.21l-6.61.19a3.28,3.28,0,0,1-2.15-.94,15,15,0,0,0-1.6-1.45,1.15,1.15,0,0,1-.18-1.72l2.59-2.8a.84.84,0,0,0-.33-1.44L350,352.73a2.73,2.73,0,0,0-2.27.21l-3.86,2.58a3.55,3.55,0,0,1-2.33.44c-1.23-.23-2.49-.4-3.75-.51a2.62,2.62,0,0,1-1.88-1.26l-1.48-2.86a2.05,2.05,0,0,0-1.88-1.05l-7.22.68a1.25,1.25,0,0,0-1.11,1.42l.37,2.78a1.57,1.57,0,0,1-1.06,1.65,27.42,27.42,0,0,0-3,1.09,3.9,3.9,0,0,1-2.39.13l-5.65-1.86A2.59,2.59,0,0,0,310.22,356.59Zm32.38,6c6.3,2.62,7.92,7.67,3.61,11.29s-12.91,4.43-19.21,1.81-7.91-7.68-3.61-11.3S336.3,359.94,342.6,362.56Z" style="fill:#f5f5f5"></path><path d="M332.64,351.41a1,1,0,0,1,.73.44l1.48,2.86a3.71,3.71,0,0,0,2.79,1.87c1.24.11,2.46.28,3.64.5a4,4,0,0,0,.71.06,4.66,4.66,0,0,0,2.46-.68l3.86-2.57a1.49,1.49,0,0,1,.75-.18,1.24,1.24,0,0,1,.45.07l5.51,2.29-2.36,2.55a2.25,2.25,0,0,0-.6,1.7A2.39,2.39,0,0,0,353,362a16.31,16.31,0,0,1,1.49,1.35,4.4,4.4,0,0,0,2.92,1.3h.08l6.61-.19a.71.71,0,0,1,.57.42l1,3.24-6.24,1a3.16,3.16,0,0,0-2.43,2.29,10.49,10.49,0,0,1-.4,1.1,2.41,2.41,0,0,0,1.06,3.2L362,378l-3.33,2.8a1.45,1.45,0,0,1-.84.24,1.31,1.31,0,0,1-.29,0l-5.64-1.86a4.4,4.4,0,0,0-1.31-.19,4.86,4.86,0,0,0-1.89.36,27.14,27.14,0,0,1-2.88,1,2.71,2.71,0,0,0-1.86,2.88l.36,2.79a.12.12,0,0,1,0,.1.09.09,0,0,1-.07,0l-7.22.68h0a1,1,0,0,1-.76-.44l-1.47-2.86a3.72,3.72,0,0,0-2.8-1.87c-1.23-.11-2.46-.28-3.64-.5a3.88,3.88,0,0,0-.7-.06,4.67,4.67,0,0,0-2.47.68l-3.86,2.57a1.46,1.46,0,0,1-.75.18,1.24,1.24,0,0,1-.45-.07l-5.51-2.3,2.36-2.54a2.21,2.21,0,0,0,.6-1.7,2.39,2.39,0,0,0-.91-1.68,15,15,0,0,1-1.49-1.35,4.39,4.39,0,0,0-2.92-1.29h-.08l-6.61.19a.73.73,0,0,1-.57-.42l-1-3.25,6.24-1a3.21,3.21,0,0,0,2.43-2.29,6.61,6.61,0,0,1,.4-1.1,2.44,2.44,0,0,0-1.07-3.21l-4.31-2.23,3.33-2.8a1.47,1.47,0,0,1,.84-.25,1.06,1.06,0,0,1,.29,0l5.65,1.86a4.3,4.3,0,0,0,1.3.18,5.05,5.05,0,0,0,1.89-.35,29.57,29.57,0,0,1,2.88-1.05,2.66,2.66,0,0,0,1.86-2.87l-.36-2.79a.15.15,0,0,1,0-.11.11.11,0,0,1,.07,0l7.22-.68h0m2.53,26.92c4.75,0,9-1.31,11.77-3.61a6.82,6.82,0,0,0,2.75-6.29c-.43-2.82-2.86-5.34-6.65-6.92a22.67,22.67,0,0,0-8.6-1.63c-4.75,0-9.05,1.32-11.78,3.62a6.83,6.83,0,0,0-2.75,6.28c.44,2.83,2.86,5.35,6.66,6.93a22.63,22.63,0,0,0,8.6,1.62m-2.53-28.06h-.14l-7.22.68a1.25,1.25,0,0,0-1.11,1.42l.37,2.78a1.57,1.57,0,0,1-1.06,1.65,27.42,27.42,0,0,0-3,1.09,4,4,0,0,1-1.44.26,3.12,3.12,0,0,1-.95-.13l-5.65-1.86a2.15,2.15,0,0,0-.64-.09,2.59,2.59,0,0,0-1.57.51l-3.65,3.07a.79.79,0,0,0,.17,1.42l4.67,2.42a1.29,1.29,0,0,1,.55,1.73,8.8,8.8,0,0,0-.46,1.27A2.1,2.1,0,0,1,310,368l-6.28,1a1.08,1.08,0,0,0-.87,1.45l1,3.25a1.84,1.84,0,0,0,1.65,1.22h0l6.6-.2h.05a3.29,3.29,0,0,1,2.1,1,17.4,17.4,0,0,0,1.6,1.45,1.15,1.15,0,0,1,.19,1.72l-2.6,2.8a.84.84,0,0,0,.33,1.44l5.82,2.41a2.23,2.23,0,0,0,.88.16,2.58,2.58,0,0,0,1.38-.37l3.86-2.57a3.55,3.55,0,0,1,1.84-.49,3.74,3.74,0,0,1,.49,0,36,36,0,0,0,3.75.52,2.61,2.61,0,0,1,1.89,1.26l1.47,2.86a2.1,2.1,0,0,0,1.74,1.05h.14l7.22-.68a1.24,1.24,0,0,0,1.11-1.42l-.37-2.79a1.56,1.56,0,0,1,1.07-1.64,30.36,30.36,0,0,0,3-1.09,3.81,3.81,0,0,1,1.44-.26,3.07,3.07,0,0,1,.95.13l5.65,1.85a1.91,1.91,0,0,0,.64.1,2.57,2.57,0,0,0,1.57-.51l3.66-3.08a.8.8,0,0,0-.18-1.42l-4.67-2.41a1.31,1.31,0,0,1-.55-1.74,8.68,8.68,0,0,0,.46-1.26,2.08,2.08,0,0,1,1.52-1.47l6.27-1a1.08,1.08,0,0,0,.87-1.45l-1-3.26a1.85,1.85,0,0,0-1.65-1.21h0l-6.61.19h-.05a3.3,3.3,0,0,1-2.1-.94,15,15,0,0,0-1.6-1.45,1.15,1.15,0,0,1-.18-1.72l2.59-2.8a.84.84,0,0,0-.33-1.44L350,352.73a2.52,2.52,0,0,0-.89-.15,2.58,2.58,0,0,0-1.38.36l-3.86,2.58A3.64,3.64,0,0,1,342,356a2.57,2.57,0,0,1-.5-.05c-1.23-.23-2.49-.4-3.75-.51a2.62,2.62,0,0,1-1.88-1.26l-1.48-2.86a2.09,2.09,0,0,0-1.74-1.06Zm2.53,26.93a21.55,21.55,0,0,1-8.17-1.54c-6.3-2.62-7.91-7.68-3.61-11.3,2.6-2.18,6.77-3.34,11.05-3.34a21.49,21.49,0,0,1,8.16,1.54c6.3,2.62,7.92,7.67,3.61,11.29-2.6,2.19-6.77,3.35-11,3.35Z" style="fill:#ebebeb"></path></g></g><g id="freepik--Plant--inject-5"><g id="freepik--plant--inject-5"><g id="freepik--pot--inject-5"><path d="M370.49,269c-7-7.21-11.1-25.34-4.28-31.06h34.68c6.82,5.72,2.72,23.84-4.27,31.05l-.19.2-.24.24-.63.57-.17.13c-.17.14-.34.27-.53.4a8.17,8.17,0,0,1-.9.59c-5.75,3.35-15.07,3.35-20.82,0h0c-.3-.17-.61-.38-.91-.59s-.33-.25-.49-.38a1.56,1.56,0,0,1-.2-.16,8.18,8.18,0,0,1-.61-.55l-.28-.27Z" style="fill:#37474f"></path><path d="M397.88,235.65c7.91,4.62,7.91,12.11,0,16.73s-20.74,4.62-28.66,0-7.91-12.11,0-16.73S390,231,397.88,235.65Z" style="fill:#455a64"></path><path d="M394.07,237.87c5.82,3.4,5.81,8.9,0,12.29s-15.23,3.39-21,0-5.81-8.89,0-12.29S388.26,234.48,394.07,237.87Z" style="fill:#263238"></path><path d="M373,243.7c5.81-3.39,15.23-3.39,21,0a9.63,9.63,0,0,1,3.48,3.23,9.54,9.54,0,0,1-3.48,3.23c-5.81,3.39-15.23,3.39-21,0a9.71,9.71,0,0,1-3.48-3.23A9.8,9.8,0,0,1,373,243.7Z" style="fill:#fafafa"></path></g><path d="M381.22,197.45c-2.66,2.88-10.05,3.68-13.1-4.1-2.87-7.3-6-14.22-6.85-16.9a2.75,2.75,0,0,1,1.76-3.56s.22-4,7-1.29,11.59,6.84,14.55,13.51S385.77,196.56,381.22,197.45Z" style="fill:#BA68C8"></path><path d="M381.22,197.45c-2.66,2.88-10.05,3.68-13.1-4.1-2.87-7.3-6-14.22-6.85-16.9a2.75,2.75,0,0,1,1.76-3.56s.22-4,7-1.29,11.59,6.84,14.55,13.51S385.77,196.56,381.22,197.45Z" style="fill:#fff;opacity:0.65"></path><path d="M384.16,207.74a37.11,37.11,0,0,0-.59-4.06,57,57,0,0,0-10.13-22.36,49.77,49.77,0,0,0-6.19-7c-.07-.06-.12.09-.07.14a61.72,61.72,0,0,1,9.69,13.39A62.91,62.91,0,0,1,382.48,203c.33,1.48.65,3,.92,4.45s.43,3.05.69,4.57c0,.15.26.24.27,0A28.54,28.54,0,0,0,384.16,207.74Z" style="fill:#BA68C8"></path><path d="M384.16,207.74a37.11,37.11,0,0,0-.59-4.06,57,57,0,0,0-10.13-22.36,49.77,49.77,0,0,0-6.19-7c-.07-.06-.12.09-.07.14a61.72,61.72,0,0,1,9.69,13.39A62.91,62.91,0,0,1,382.48,203c.33,1.48.65,3,.92,4.45s.43,3.05.69,4.57c0,.15.26.24.27,0A28.54,28.54,0,0,0,384.16,207.74Z" style="opacity:0.30000000000000004"></path><path d="M386.43,195.44c-6.1,1.88-10.64-2.88-9.07-10.35s9.42-15.76,12.38-13.53c1.85-1.86,5.93-1.19,7.85,4.88S397.76,198.08,386.43,195.44Z" style="fill:#BA68C8"></path><path d="M386.43,195.44c-6.1,1.88-10.64-2.88-9.07-10.35s9.42-15.76,12.38-13.53c1.85-1.86,5.93-1.19,7.85,4.88S397.76,198.08,386.43,195.44Z" style="fill:#fff;opacity:0.35000000000000003"></path><path d="M390,176.1A82.37,82.37,0,0,0,386,189.52a131.13,131.13,0,0,0-2.35,14,220.36,220.36,0,0,0-1.23,27.55q0,3.81.11,7.62c0,2.61,0,5.26.23,7.87.08,1,1.5.73,1.52-.19.09-4.57-.16-9.17-.21-13.74s0-9.05.09-13.57a190.55,190.55,0,0,1,2.47-27.51c.44-2.53.92-5.06,1.51-7.56s1.38-5.23,2.07-7.84C390.19,176.1,390.07,176,390,176.1Z" style="fill:#BA68C8"></path><path d="M390,176.1A82.37,82.37,0,0,0,386,189.52a131.13,131.13,0,0,0-2.35,14,220.36,220.36,0,0,0-1.23,27.55q0,3.81.11,7.62c0,2.61,0,5.26.23,7.87.08,1,1.5.73,1.52-.19.09-4.57-.16-9.17-.21-13.74s0-9.05.09-13.57a190.55,190.55,0,0,1,2.47-27.51c.44-2.53.92-5.06,1.51-7.56s1.38-5.23,2.07-7.84C390.19,176.1,390.07,176,390,176.1Z" style="opacity:0.30000000000000004"></path><path d="M376.5,217.34c-2.67,3-8.78,2.75-12.88-2.63s-6.55-25.64-.79-24.35c1.22-2.7,17.16,3.79,19.2,17C383.52,217,376.5,217.34,376.5,217.34Z" style="fill:#BA68C8"></path><path d="M376.5,217.34c-2.67,3-8.78,2.75-12.88-2.63s-6.55-25.64-.79-24.35c1.22-2.7,17.16,3.79,19.2,17C383.52,217,376.5,217.34,376.5,217.34Z" style="fill:#fff;opacity:0.35000000000000003"></path><path d="M381.27,226.91a29.2,29.2,0,0,0-.79-3.69q-1-3.72-2.37-7.33a77.84,77.84,0,0,0-7.12-14,67.65,67.65,0,0,0-5.06-7.14c-.05-.06-.1.08-.07.12,1.43,2.07,2.87,4.13,4.15,6.29a76.25,76.25,0,0,1,3.61,6.95,96,96,0,0,1,5.26,14.1c.39,1.37.71,2.76,1.12,4.13s.95,2.81,1.3,4.25c.06.21.32.28.3,0C381.47,229.39,381.43,228.15,381.27,226.91Z" style="fill:#BA68C8"></path><path d="M381.27,226.91a29.2,29.2,0,0,0-.79-3.69q-1-3.72-2.37-7.33a77.84,77.84,0,0,0-7.12-14,67.65,67.65,0,0,0-5.06-7.14c-.05-.06-.1.08-.07.12,1.43,2.07,2.87,4.13,4.15,6.29a76.25,76.25,0,0,1,3.61,6.95,96,96,0,0,1,5.26,14.1c.39,1.37.71,2.76,1.12,4.13s.95,2.81,1.3,4.25c.06.21.32.28.3,0C381.47,229.39,381.43,228.15,381.27,226.91Z" style="opacity:0.30000000000000004"></path><path d="M386.26,214.35c-3.49-.79-3.67-5,.69-10.13s15.35-7.38,15.87-5.21c2.44,0,2.44,7.64-3,14.67S386.58,219.07,386.26,214.35Z" style="fill:#BA68C8"></path><path d="M386.26,214.35c-3.49-.79-3.67-5,.69-10.13s15.35-7.38,15.87-5.21c2.44,0,2.44,7.64-3,14.67S386.58,219.07,386.26,214.35Z" style="fill:#fff;opacity:0.35000000000000003"></path><path d="M393.09,206.87a27.65,27.65,0,0,0-10.1,13c-.11.3.41.74.53.41a32.08,32.08,0,0,1,9.59-13.37S393.13,206.84,393.09,206.87Z" style="fill:#BA68C8"></path><path d="M393.09,206.87a27.65,27.65,0,0,0-10.1,13c-.11.3.41.74.53.41a32.08,32.08,0,0,1,9.59-13.37S393.13,206.84,393.09,206.87Z" style="opacity:0.30000000000000004"></path><path d="M390.24,239.87c-4.83,1.95-2.76,7.71,2,12.08a21.56,21.56,0,0,0,14.7,5.29c3.24-.23,4.07-.68,4.07-.68a36.87,36.87,0,0,0,0-8,15.48,15.48,0,0,0-11.39-12.27C392.05,234.27,390.24,237,390.24,239.87Z" style="fill:#BA68C8"></path><path d="M390.24,239.87c-4.83,1.95-2.76,7.71,2,12.08a21.56,21.56,0,0,0,14.7,5.29c3.24-.23,4.07-.68,4.07-.68a36.87,36.87,0,0,0,0-8,15.48,15.48,0,0,0-11.39-12.27C392.05,234.27,390.24,237,390.24,239.87Z" style="fill:#fff;opacity:0.65"></path><path d="M403.62,248.36a39.35,39.35,0,0,0-7.4-6.84c-2.75-1.81-6.42-3.36-9.72-2.23-1.28.44-3.27,1.71-3,3.3,0,.15.31.54.5.33a13,13,0,0,1,1.74-2,5.15,5.15,0,0,1,2.59-1,12,12,0,0,1,6.77,1.55c3.27,1.73,5.91,4.41,8.51,7C403.61,248.47,403.64,248.39,403.62,248.36Z" style="fill:#BA68C8"></path><path d="M403.62,248.36a39.35,39.35,0,0,0-7.4-6.84c-2.75-1.81-6.42-3.36-9.72-2.23-1.28.44-3.27,1.71-3,3.3,0,.15.31.54.5.33a13,13,0,0,1,1.74-2,5.15,5.15,0,0,1,2.59-1,12,12,0,0,1,6.77,1.55c3.27,1.73,5.91,4.41,8.51,7C403.61,248.47,403.64,248.39,403.62,248.36Z" style="opacity:0.30000000000000004"></path><path d="M371.85,215.13c.45-2.2-2.72-7.47-12.63-8.48s-17.32,3.19-18.82,5.11-2.25,3.94-.45,4.44,8,1.11,12,3,12.33,7.4,18,5.75S374.65,217.31,371.85,215.13Z" style="fill:#BA68C8"></path><path d="M371.85,215.13c.45-2.2-2.72-7.47-12.63-8.48s-17.32,3.19-18.82,5.11-2.25,3.94-.45,4.44,8,1.11,12,3,12.33,7.4,18,5.75S374.65,217.31,371.85,215.13Z" style="fill:#fff;opacity:0.65"></path><path d="M379.38,222.8c-4.18-8.63-14.95-11.27-23.75-11.22a34.94,34.94,0,0,0-8.58,1.12s-.05.11,0,.1a45.38,45.38,0,0,1,14.34-.15,29.76,29.76,0,0,1,13.1,5,18,18,0,0,1,4.69,5.26C379.3,223.17,379.46,223,379.38,222.8Z" style="fill:#BA68C8"></path><path d="M379.38,222.8c-4.18-8.63-14.95-11.27-23.75-11.22a34.94,34.94,0,0,0-8.58,1.12s-.05.11,0,.1a45.38,45.38,0,0,1,14.34-.15,29.76,29.76,0,0,1,13.1,5,18,18,0,0,1,4.69,5.26C379.3,223.17,379.46,223,379.38,222.8Z" style="opacity:0.30000000000000004"></path><path d="M394.92,203.57c-.12,3.46,4.75,5.47,9.47,2.48s9.66-5.91,14-7,6.44-4.7,5.06-6.42-3.58-6.08-15.07-4.66-15.57,6.6-17.14,10.26S393.19,204.57,394.92,203.57Z" style="fill:#BA68C8"></path><path d="M394.92,203.57c-.12,3.46,4.75,5.47,9.47,2.48s9.66-5.91,14-7,6.44-4.7,5.06-6.42-3.58-6.08-15.07-4.66-15.57,6.6-17.14,10.26S393.19,204.57,394.92,203.57Z" style="fill:#fff;opacity:0.65"></path><path d="M413.63,192.57a12.51,12.51,0,0,0-4.93.52,24.39,24.39,0,0,0-4.22,1.51,23.26,23.26,0,0,0-7.19,5.21,19,19,0,0,0-1.62,1.95,8.68,8.68,0,0,0-1.23,2c-.07.23.26.6.46.37.57-.66,1-1.46,1.53-2.15a21.94,21.94,0,0,1,1.85-2.12,23.33,23.33,0,0,1,4.43-3.49,27.85,27.85,0,0,1,4.91-2.39c.93-.34,1.89-.61,2.86-.86a10,10,0,0,1,3.12-.43C413.66,192.7,413.68,192.58,413.63,192.57Z" style="fill:#BA68C8"></path><path d="M413.63,192.57a12.51,12.51,0,0,0-4.93.52,24.39,24.39,0,0,0-4.22,1.51,23.26,23.26,0,0,0-7.19,5.21,19,19,0,0,0-1.62,1.95,8.68,8.68,0,0,0-1.23,2c-.07.23.26.6.46.37.57-.66,1-1.46,1.53-2.15a21.94,21.94,0,0,1,1.85-2.12,23.33,23.33,0,0,1,4.43-3.49,27.85,27.85,0,0,1,4.91-2.39c.93-.34,1.89-.61,2.86-.86a10,10,0,0,1,3.12-.43C413.66,192.7,413.68,192.58,413.63,192.57Z" style="opacity:0.30000000000000004"></path><path d="M386.67,222.27c-1.61-1.61-6-1.24-8.05,3.52s2.28,10,2.76,11.43c2-1.15,3.55-.46,7.07-1.15a8.78,8.78,0,0,0,6.74-8.75C395,223,393.12,220.08,386.67,222.27Z" style="fill:#BA68C8"></path><path d="M386.67,222.27c-1.61-1.61-6-1.24-8.05,3.52s2.28,10,2.76,11.43c2-1.15,3.55-.46,7.07-1.15a8.78,8.78,0,0,0,6.74-8.75C395,223,393.12,220.08,386.67,222.27Z" style="fill:#fff;opacity:0.65"></path><path d="M386.61,221.79a6.53,6.53,0,0,0-2.13,2.21,11.59,11.59,0,0,0-1.38,2.66,11.34,11.34,0,0,0-.61,6.07c0,.07.08,0,.07,0a11.94,11.94,0,0,1,2.47-8.39c.31-.39.63-.77,1-1.13a5.78,5.78,0,0,0,.93-.92C387,222.06,386.86,221.67,386.61,221.79Z" style="fill:#BA68C8"></path><path d="M386.61,221.79a6.53,6.53,0,0,0-2.13,2.21,11.59,11.59,0,0,0-1.38,2.66,11.34,11.34,0,0,0-.61,6.07c0,.07.08,0,.07,0a11.94,11.94,0,0,1,2.47-8.39c.31-.39.63-.77,1-1.13a5.78,5.78,0,0,0,.93-.92C387,222.06,386.86,221.67,386.61,221.79Z" style="opacity:0.30000000000000004"></path><path d="M379.09,231.91c-.14-3.54-4-6.35-9.44-8A14.88,14.88,0,0,0,354.29,228c-4,4.33-6.05,8-4.43,9.06s8.86,3.69,13.58,5.17,10.93,1.92,15.65-.89S383.52,233.68,379.09,231.91Z" style="fill:#BA68C8"></path><path d="M379.09,231.91c-.14-3.54-4-6.35-9.44-8A14.88,14.88,0,0,0,354.29,228c-4,4.33-6.05,8-4.43,9.06s8.86,3.69,13.58,5.17,10.93,1.92,15.65-.89S383.52,233.68,379.09,231.91Z" style="fill:#fff;opacity:0.35000000000000003"></path><path d="M379.4,231.51a15.07,15.07,0,0,0-5.94-1.58,27.44,27.44,0,0,0-5.94.07,37.9,37.9,0,0,0-6.16,1.3c-1.05.31-2.09.66-3.12,1a20.93,20.93,0,0,0-2.86,1.17s-.06.14,0,.13c1-.21,2-.61,3-.91s2.11-.63,3.18-.91a41.9,41.9,0,0,1,6.07-1.15,27.09,27.09,0,0,1,6.17,0,37.33,37.33,0,0,1,5.59,1.36C379.73,232.17,379.61,231.64,379.4,231.51Z" style="fill:#BA68C8"></path><path d="M379.4,231.51a15.07,15.07,0,0,0-5.94-1.58,27.44,27.44,0,0,0-5.94.07,37.9,37.9,0,0,0-6.16,1.3c-1.05.31-2.09.66-3.12,1a20.93,20.93,0,0,0-2.86,1.17s-.06.14,0,.13c1-.21,2-.61,3-.91s2.11-.63,3.18-.91a41.9,41.9,0,0,1,6.07-1.15,27.09,27.09,0,0,1,6.17,0,37.33,37.33,0,0,1,5.59,1.36C379.73,232.17,379.61,231.64,379.4,231.51Z" style="opacity:0.30000000000000004"></path><path d="M390.37,226.64c-3.91-3.11-2.61-10.55,11.06-10.95s23.43,3.17,23,7.57c2.2,2.2,1.09,8.36-10,10.28S387.55,234.51,390.37,226.64Z" style="fill:#BA68C8"></path><path d="M390.37,226.64c-3.91-3.11-2.61-10.55,11.06-10.95s23.43,3.17,23,7.57c2.2,2.2,1.09,8.36-10,10.28S387.55,234.51,390.37,226.64Z" style="fill:#fff;opacity:0.35000000000000003"></path><path d="M418,223.31a58.59,58.59,0,0,0-12.2-.72,47.43,47.43,0,0,0-11.27,1.3,16.48,16.48,0,0,0-2.75,1c-.41.2-.82.41-1.2.64s-.66.35-.77.72a.37.37,0,0,0,.41.43,14.72,14.72,0,0,0,2.39-1.18,19.56,19.56,0,0,1,2.36-.86,29.57,29.57,0,0,1,4.75-.94,83.91,83.91,0,0,1,11.53-.63c2.25,0,4.49.2,6.73.37C418,223.47,418.06,223.32,418,223.31Z" style="fill:#BA68C8"></path><path d="M418,223.31a58.59,58.59,0,0,0-12.2-.72,47.43,47.43,0,0,0-11.27,1.3,16.48,16.48,0,0,0-2.75,1c-.41.2-.82.41-1.2.64s-.66.35-.77.72a.37.37,0,0,0,.41.43,14.72,14.72,0,0,0,2.39-1.18,19.56,19.56,0,0,1,2.36-.86,29.57,29.57,0,0,1,4.75-.94,83.91,83.91,0,0,1,11.53-.63c2.25,0,4.49.2,6.73.37C418,223.47,418.06,223.32,418,223.31Z" style="opacity:0.30000000000000004"></path></g></g><g id="freepik--Device--inject-5"><g id="freepik--device--inject-5"><g id="freepik--Case--inject-5"><path d="M312.49,255.48l4-2.3s21.09-68.8,23.05-72.79-1.59-6-5.38-3.82l-198,114.15c-3.8,2.19-5,5.21-8.37,11.77s-22.42,69.78-22.42,69.78a3.52,3.52,0,0,0,1.7,3.71l45.07,26.11L359.21,282.54Z" style="fill:#BA68C8"></path><path d="M312.49,255.48l4-2.3s21.09-68.8,23.05-72.79-1.59-6-5.38-3.82l-198,114.15c-3.8,2.19-5,5.21-8.37,11.77s-22.42,69.78-22.42,69.78a3.52,3.52,0,0,0,1.7,3.71l45.07,26.11L359.21,282.54Z" style="fill:#fff;opacity:0.35000000000000003"></path><path d="M130.27,304.08c-2.57,5-22.4,69.53-22.4,69.53L319,251.74S339.9,186.12,342,182s-1.59-6-5.39-3.83l-198,114.16C134.84,294.5,132.84,299.1,130.27,304.08Z" style="fill:#BA68C8"></path><path d="M130.27,304.08c-2.57,5-22.4,69.53-22.4,69.53L319,251.74S339.9,186.12,342,182s-1.59-6-5.39-3.83l-198,114.16C134.84,294.5,132.84,299.1,130.27,304.08Z" style="opacity:0.15"></path><polygon points="314.94 254.06 107.87 373.61 153.73 400.09 360.8 280.55 314.94 254.06" style="fill:#BA68C8"></polygon><path d="M329.36,103.29l-199.5,115c-4.37,2.53-5.74,6.61-5,12L148.5,396c.77,5.39,5.06,8.54,9.44,6L355.67,287.85c4.38-2.53,7.3-8.94,6.53-14.33l-23.52-165C337.91,103.08,333.74,100.76,329.36,103.29Z" style="fill:#BA68C8"></path><path d="M329.36,103.29l-199.5,115c-4.37,2.53-5.74,6.61-5,12L148.5,396c.77,5.39,5.06,8.54,9.44,6L355.67,287.85c4.38-2.53,7.3-8.94,6.53-14.33l-23.52-165C337.91,103.08,333.74,100.76,329.36,103.29Z" style="fill:#fff;opacity:0.35000000000000003"></path></g><g id="freepik--Tablet--inject-5"><path d="M342.81,106.8a6.17,6.17,0,0,0-5.38.67L139.69,221.6a13.26,13.26,0,0,0-5.05,5.79l-6.38-2.71c1.4-3.06,3.85-4.18,5.94-5.4L331.94,105.15a6.11,6.11,0,0,1,5.58-.57h0Z" style="fill:#455a64"></path><path d="M154.91,403.63h0c-2-.8-3.41-2.84-3.84-5.8L127.68,233.6c-.49-3.36-.64-6.38.58-8.92l6.38,2.7c-.17.35-.32.71-.47,1.09s-.22.59-.31.88a.43.43,0,0,0,0,.14,10.08,10.08,0,0,0-.31,1c-.09.36-.17.73-.23,1.09a5.63,5.63,0,0,0-.11.81,12.82,12.82,0,0,0,0,3.5L156.69,401c.42,3,1.91,5,3.89,5.84Z" style="fill:#263238"></path><path d="M337.43,107.48l-199.51,115c-4.37,2.52-5.74,6.61-5,12L156.68,401c.77,5.39,4.94,7.71,9.32,5.18L363.74,292c4.37-2.52,7.29-8.94,6.52-14.32L346.75,112.66C346,107.28,341.8,105,337.43,107.48Z" style="fill:#37474f"></path><path d="M351.6,291.28,175.1,393.14c-2.27,1.31-4.43.11-4.83-2.69L147,227.11a7.87,7.87,0,0,1,3.38-7.42L326.87,117.83c2.26-1.31,4.43-.1,4.82,2.69L355,283.86A7.86,7.86,0,0,1,351.6,291.28Z" style="fill:#263238"></path><path d="M147,227.11l23.29,163.34a3.23,3.23,0,0,0,.06.33l176.5-101.86a7.85,7.85,0,0,0,3.38-7.42L326.87,117.83,150.36,219.69A7.87,7.87,0,0,0,147,227.11Z" style="fill:#fafafa"></path><path d="M156,328.26a4,4,0,0,1-1.7,3.73c-1.14.66-2.23.05-2.43-1.35a4,4,0,0,1,1.7-3.74C154.7,326.25,155.79,326.85,156,328.26Z" style="fill:#263238"></path><path d="M148.27,290h0a3.08,3.08,0,0,0-1.33,2.9l3.86,26.9c.16,1.09,1,1.56,1.89,1.05h0A3.08,3.08,0,0,0,154,318l-3.85-26.89C150,290,149.15,289.5,148.27,290Z" style="fill:#263238"></path></g></g><g id="freepik--window--inject-5"><g id="freepik--window--inject-5"><path d="M337.85,125.8a1.12,1.12,0,0,0-.1-.31s0,0,0-.06a.86.86,0,0,0-.13-.29,1.37,1.37,0,0,0-.29-.42.49.49,0,0,0-.15-.17,1.42,1.42,0,0,0-.13-.12,2.16,2.16,0,0,0-.29-.21l0,0a2.17,2.17,0,0,0-.35-.15,3.17,3.17,0,0,0-2.58.39L160.48,224.22c-2,1.15-3.37,3.82-2.84,7.54l22.67,158.37-.22-1.57.11.73a2.55,2.55,0,0,0,1.69,1.95l.17.09.22.09a2,2,0,0,0,.35.09,2.85,2.85,0,0,0,.5,0,2.67,2.67,0,0,0,1.25-.37l.09-.05h0l3.45-2,169.74-97.79a6.42,6.42,0,0,0,3.06-5.94L337.94,126.21A2.71,2.71,0,0,0,337.85,125.8Z" style="fill:#fafafa"></path><path d="M335.54,125a1.36,1.36,0,0,1,.49.08l.13,0h0l.06,0,.08.05.09.09,0,0h0l0,0,.09.1.05.06v0l.18.32v0l0,0,0,0s0,0,0,.07a3,3,0,0,1,.06.32l22.8,159.18a5.43,5.43,0,0,1-2.56,4.9L187.41,388.23l-3.35,1.93h0l-.09.07-.07,0a1.64,1.64,0,0,1-.74.24h-.07l-.27,0-.14,0c-.06,0-.11,0-.11-.05l-.14-.06,0,0h0l0,0a1.55,1.55,0,0,1-1.05-1.13l-.1-.74-.08-.48L158.66,231.61c-.5-3.5.88-5.65,2.33-6.49l173.29-99.78a2.66,2.66,0,0,1,1.26-.38m0-1a3.63,3.63,0,0,0-1.77.52l-173.3,99.78c-2,1.15-3.36,3.82-2.83,7.54l22.67,158.31c-.21-1.41-.22-1.51-.22-1.51h0l.11.73a2.55,2.55,0,0,0,1.69,1.95l.17.09.22.09a2,2,0,0,0,.35.09l.42,0h.08a2.67,2.67,0,0,0,1.25-.37l.09-.05h0l3.45-2,169.74-97.79a6.42,6.42,0,0,0,3.06-5.94L337.94,126.21a2.71,2.71,0,0,0-.09-.41,1.12,1.12,0,0,0-.1-.31s0,0,0-.06a.86.86,0,0,0-.13-.29,1.37,1.37,0,0,0-.29-.42.49.49,0,0,0-.15-.17,1.42,1.42,0,0,0-.13-.12,2.16,2.16,0,0,0-.29-.21l0,0a2.17,2.17,0,0,0-.35-.15,2.64,2.64,0,0,0-.81-.13ZM180.31,390.07v0Z" style="fill:#BA68C8"></path><path d="M336.35,124.05a3.17,3.17,0,0,0-2.58.39L160.48,224.22a6.46,6.46,0,0,0-3.07,5.95l.93,6.47-5.32-2.3L152.1,228a6.43,6.43,0,0,1,3.05-5.93l173.31-99.78a3,3,0,0,1,2.79-.31C332,122.26,335.46,123.71,336.35,124.05Z" style="fill:#BA68C8"></path><path d="M337.93,126.19c-.32-2.11-2.17-2.89-4.16-1.74l-173.3,99.78a6.45,6.45,0,0,0-3.06,5.93l.93,6.48L338.86,132.7Z" style="fill:#BA68C8"></path><g style="opacity:0.2"><path d="M333.77,124.45,160.48,224.23a6.44,6.44,0,0,0-2.39,2.59l-5.29-2.26a6.24,6.24,0,0,1,2.36-2.54l173.3-99.78a3,3,0,0,1,2.8-.32c.74.34,4.2,1.78,5.07,2.13A3.07,3.07,0,0,0,333.77,124.45Z" style="fill:#fff"></path></g><path d="M153,234.36,152.1,228a5.73,5.73,0,0,1,.7-3.39l5.3,2.24a5.63,5.63,0,0,0-.68,3.37l.92,6.47Z" style="opacity:0.15"></path><path d="M322.17,134.71a2.93,2.93,0,0,0-1.27,2.77c.15,1,1,1.49,1.81,1a2.94,2.94,0,0,0,1.26-2.77C323.82,134.67,323,134.22,322.17,134.71Z" style="fill:#fafafa"></path><path d="M327.68,131.52a2.94,2.94,0,0,0-1.26,2.77c.15,1,1,1.49,1.81,1a2.94,2.94,0,0,0,1.26-2.77C329.34,131.48,328.53,131,327.68,131.52Z" style="fill:#fafafa"></path><path d="M333.2,128.32a3,3,0,0,0-1.26,2.78c.15,1,1,1.49,1.8,1a2.93,2.93,0,0,0,1.27-2.77C334.86,128.28,334.05,127.84,333.2,128.32Z" style="fill:#fafafa"></path><path d="M181.88,391.26l-.21-.09-4.39-1.87a4.1,4.1,0,0,1-2.4-2.5,2.88,2.88,0,0,1-.11-.49L153,234.34l5.33,2.3,21.85,152.65a2.45,2.45,0,0,0,1.48,1.84l.14.07,0,0Z" style="fill:#BA68C8"></path><path d="M181.88,391.26l-.21-.09-4.39-1.87a4.1,4.1,0,0,1-2.4-2.5,2.88,2.88,0,0,1-.11-.49L153,234.34l5.33,2.3,21.85,152.65a2.45,2.45,0,0,0,1.48,1.84l.14.07,0,0Z" style="fill:#fff;opacity:0.5"></path></g><polygon points="252.51 205.76 173.2 251.55 171.25 237.9 250.56 192.11 252.51 205.76" style="fill:#e0e0e0"></polygon><path d="M171.25,262.79a.91.91,0,0,1-.46-1.69L334.2,166.76a.91.91,0,0,1,1.24.33.9.9,0,0,1-.33,1.23L171.7,262.67A.92.92,0,0,1,171.25,262.79Z" style="fill:#e0e0e0"></path><path d="M211,252.31l-31.21,18c-1.14.65-2.23.05-2.43-1.35l0-.38a4,4,0,0,1,1.7-3.73l31.21-18c1.14-.66,2.23-.05,2.43,1.35l0,.38A3.93,3.93,0,0,1,211,252.31Z" style="fill:#e0e0e0"></path><path d="M270.33,218.08l-31.22,18c-1.13.66-2.22.05-2.42-1.35l-.05-.38a3.94,3.94,0,0,1,1.69-3.72l31.22-18c1.14-.65,2.22-.05,2.42,1.35l.06.38A4,4,0,0,1,270.33,218.08Z" style="fill:#e0e0e0"></path><path d="M329.62,183.84l-31.21,18c-1.14.65-2.22,0-2.42-1.35l-.06-.38a4,4,0,0,1,1.7-3.73l31.21-18c1.14-.66,2.23,0,2.43,1.35l.05.38A3.93,3.93,0,0,1,329.62,183.84Z" style="fill:#e0e0e0"></path><polygon points="260.86 292.78 185.63 336.22 178.4 285.72 253.63 242.28 260.86 292.78" style="fill:#e0e0e0"></polygon><path d="M229.12,282l-15.89-3.46a1.78,1.78,0,0,0-2.15,2l3.34,23.35a1.79,1.79,0,0,0,3.28.7l12.55-19.89A1.78,1.78,0,0,0,229.12,282Z" style="fill:#fafafa"></path><path d="M302.82,220.14l-39.38,22.74c-1.2.69-2.35.05-2.56-1.43l-.06-.4a4.17,4.17,0,0,1,1.8-4L302,214.36c1.21-.69,2.36-.05,2.57,1.43l.06.4A4.17,4.17,0,0,1,302.82,220.14Z" style="fill:#e0e0e0"></path><path d="M262.2,251.59a.89.89,0,0,1-.78-.45.9.9,0,0,1,.33-1.24l74.46-43a.9.9,0,0,1,.9,1.57l-74.46,43A.92.92,0,0,1,262.2,251.59Z" style="fill:#e0e0e0"></path><path d="M263.24,258.84a.92.92,0,0,1-.79-.46.9.9,0,0,1,.33-1.23l74.47-43a.9.9,0,0,1,.9,1.56l-74.46,43A.92.92,0,0,1,263.24,258.84Z" style="fill:#e0e0e0"></path><path d="M264.27,266.08a.9.9,0,0,1-.45-1.68l51-29.42a.9.9,0,0,1,.9,1.56l-51,29.42A.8.8,0,0,1,264.27,266.08Z" style="fill:#e0e0e0"></path><path d="M265.31,273.33a.9.9,0,0,1-.45-1.68l74.46-43a.91.91,0,0,1,.91,1.57l-74.47,43A.89.89,0,0,1,265.31,273.33Z" style="fill:#e0e0e0"></path><path d="M266.35,280.58a.89.89,0,0,1-.78-.45.9.9,0,0,1,.33-1.24l74.46-43a.9.9,0,0,1,.9,1.57l-74.46,43A.92.92,0,0,1,266.35,280.58Z" style="fill:#e0e0e0"></path><path d="M267.39,287.83a.91.91,0,0,1-.46-1.69L298.31,268a.9.9,0,1,1,.9,1.56l-31.37,18.12A.92.92,0,0,1,267.39,287.83Z" style="fill:#e0e0e0"></path><polygon points="267.88 341.77 263.49 311.16 188.26 354.6 192.64 385.21 267.88 341.77" style="fill:#e0e0e0"></polygon><path d="M240.11,353.55a1.79,1.79,0,0,0-1.13-2.7l-15.89-3.46a1.78,1.78,0,0,0-2.15,2l2.58,18,12.36-7.14Z" style="fill:#fafafa"></path><path d="M312.68,289l-39.37,22.73c-1.21.7-2.36.06-2.57-1.43l-.06-.4a4.19,4.19,0,0,1,1.8-3.95l39.37-22.73c1.21-.7,2.36-.06,2.57,1.43l.06.4A4.19,4.19,0,0,1,312.68,289Z" style="fill:#e0e0e0"></path><path d="M272.06,320.46a.89.89,0,0,1-.78-.45.9.9,0,0,1,.33-1.23l74.46-43a.92.92,0,0,1,1.24.33.9.9,0,0,1-.34,1.24l-74.46,43A.92.92,0,0,1,272.06,320.46Z" style="fill:#e0e0e0"></path><path d="M273.1,327.71a.91.91,0,0,1-.46-1.69l74.47-43a.9.9,0,0,1,1.23.33.91.91,0,0,1-.33,1.24l-74.46,43A.92.92,0,0,1,273.1,327.71Z" style="fill:#e0e0e0"></path><path d="M274.14,335a.91.91,0,0,1-.46-1.69l51-29.42a.9.9,0,0,1,1.23.33.91.91,0,0,1-.33,1.24l-51,29.42A1,1,0,0,1,274.14,335Z" style="fill:#e0e0e0"></path><path d="M276.06,177.63a.89.89,0,0,1-.78-.45.9.9,0,0,1,.33-1.23l46.75-27a.9.9,0,0,1,.9,1.56l-46.75,27A.92.92,0,0,1,276.06,177.63Z" style="fill:#e0e0e0"></path><path d="M277.1,184.88a.92.92,0,0,1-.79-.45.89.89,0,0,1,.34-1.23l46.74-27a.91.91,0,0,1,.91,1.57l-46.75,27A.92.92,0,0,1,277.1,184.88Z" style="fill:#e0e0e0"></path><path d="M278.14,192.13a.91.91,0,0,1-.46-1.69l46.74-27a.91.91,0,0,1,1.24.33.9.9,0,0,1-.33,1.23l-46.74,27A1,1,0,0,1,278.14,192.13Z" style="fill:#e0e0e0"></path></g></g><g id="freepik--Button--inject-5"><g id="freepik--button--inject-5"><g id="freepik--button--inject-5"><path d="M199.46,328.53l-5.72-39.91a3.38,3.38,0,0,1,1.61-3.12L317.47,215c1-.6,2-.19,2.19.93l5.71,39.91a3.38,3.38,0,0,1-1.61,3.12L201.64,329.46A1.33,1.33,0,0,1,199.46,328.53Z" style="opacity:0.15"></path><path d="M322.73,217.71,200.61,288.18A3.38,3.38,0,0,0,199,291.3l5.72,39.91a4.31,4.31,0,0,0,2.48,2.93l3.94,1.62a5.21,5.21,0,0,0,4.09-.19L337.35,265.1A3.36,3.36,0,0,0,339,262l-5.71-39.92a4.33,4.33,0,0,0-2.48-2.93l-3.94-1.62A5.21,5.21,0,0,0,322.73,217.71Z" style="fill:#BA68C8;opacity:0.5"></path><path d="M213,334.65l-5.71-39.92a3.38,3.38,0,0,1,1.6-3.11l122.13-70.48a1.33,1.33,0,0,1,2.18.93L339,262a3.36,3.36,0,0,1-1.6,3.11L215.23,335.57C214.18,336.18,213.2,335.76,213,334.65Z" style="fill:#BA68C8;opacity:0.4"></path><path d="M215.23,335.57a5.34,5.34,0,0,1-4.1.19l-3.93-1.62a4.33,4.33,0,0,1-2.49-2.92L199,291.3a3.11,3.11,0,0,1,.39-1.82l8.29,3.51a2.89,2.89,0,0,0-.35,1.74L213,334.64A1.34,1.34,0,0,0,215.23,335.57Z" style="fill:#BA68C8;opacity:0.5"></path><path d="M215.23,335.57a5.34,5.34,0,0,1-4.1.19l-3.93-1.62a4.33,4.33,0,0,1-2.49-2.92L199,291.3a3.11,3.11,0,0,1,.39-1.82l8.29,3.51a2.89,2.89,0,0,0-.35,1.74L213,334.64A1.34,1.34,0,0,0,215.23,335.57Z" style="opacity:0.2"></path><path d="M333.17,221.76c-.29-.88-1.17-1.16-2.12-.62L208.94,291.62a3.28,3.28,0,0,0-1.26,1.37l-8.3-3.51a3.35,3.35,0,0,1,1.23-1.3l122.12-70.47a5.21,5.21,0,0,1,4.09-.19l3.93,1.62A4.47,4.47,0,0,1,333.17,221.76Z" style="fill:#fff;opacity:0.4"></path></g><path d="M245,307a1.8,1.8,0,0,1-1.44-.29,1.49,1.49,0,0,1-.37-.78,5.17,5.17,0,0,1,.07-1.64c.11-.61.27-1,.49-1.11a.76.76,0,0,1,.51,0l.52.1a2.08,2.08,0,0,0,1.34-.21,2.49,2.49,0,0,0,.93-1,2.4,2.4,0,0,0,.24-1.57,2.16,2.16,0,0,0-.4-1.07,1.45,1.45,0,0,0-.65-.5,10.11,10.11,0,0,0-1-.25,4.18,4.18,0,0,1-2.36-1.2,5.89,5.89,0,0,1-1.11-3,7.78,7.78,0,0,1,.53-4.29,6.25,6.25,0,0,1,2.61-2.94,4,4,0,0,1,1.36-.49,2.26,2.26,0,0,1,1.18,0,.83.83,0,0,1,.46.72,6.28,6.28,0,0,1,0,1.56c-.07.58-.2.94-.41,1.06a1.5,1.5,0,0,1-.56.1,2.62,2.62,0,0,0-1.25.29,2,2,0,0,0-.95,1,2.54,2.54,0,0,0-.13,1.18,1.81,1.81,0,0,0,.57,1.26,3.31,3.31,0,0,0,1.29.46l.47.1a3.74,3.74,0,0,1,2.15,1.18,5.86,5.86,0,0,1,1,2.84,9.14,9.14,0,0,1-.06,2.95,7.58,7.58,0,0,1-1,2.77,6,6,0,0,1-2.11,2A5.23,5.23,0,0,1,245,307Z" style="fill:#fafafa"></path><path d="M253.66,301.31l-2-14.06-2,1.18a.3.3,0,0,1-.45-.08,2.47,2.47,0,0,1-.27-.92l-.11-.81a3.18,3.18,0,0,1,0-1.06.82.82,0,0,1,.36-.55l7-4a.32.32,0,0,1,.47.07,2.4,2.4,0,0,1,.27.91l.11.81a3.24,3.24,0,0,1,0,1.07.85.85,0,0,1-.38.56l-2.06,1.18,2,14.06c.08.56-.24,1-1,1.45l-.75.43C254.13,301.94,253.74,301.87,253.66,301.31Z" style="fill:#fafafa"></path><path d="M258.87,298.59a2,2,0,0,1,0-.5l.45-18.22a1.67,1.67,0,0,1,1-1.38l1.19-.69c.67-.39,1.09-.36,1.24.07l5.2,15c.06.23.1.38.11.45.05.38-.18.73-.71,1l-1,.56c-.59.34-.94.35-1.05,0L264.4,292l-2.79,1.61,0,3.47c0,.39-.26.74-.79,1l-.95.55Q258.95,299.16,258.87,298.59Zm4.76-9.61L262,283.92c-.17-.57-.34-1.19-.5-1.85l-.09.05c0,.73.06,1.43.06,2.11l0,6Z" style="fill:#fafafa"></path><path d="M269.05,292.43,266.69,276a1.68,1.68,0,0,1,.07-.89,1.14,1.14,0,0,1,.52-.57l3.06-1.77a3,3,0,0,1,2.89-.38c.79.4,1.33,1.51,1.59,3.36a7.59,7.59,0,0,1-1.11,5.41v.11a1.54,1.54,0,0,1,.89.62,4.72,4.72,0,0,1,.72,1.27l1.8,4.39.1.28c.06.47-.28.92-1,1.36l-.64.37c-.65.38-1.05.35-1.2-.07l-1.69-4.39a1.17,1.17,0,0,0-.49-.59c-.16-.08-.4,0-.7.15l-.44.25.84,5.9c.08.55-.24,1-1,1.47l-.62.36C269.53,293.05,269.13,293,269.05,292.43Zm2.46-11.93a1.53,1.53,0,0,0,.61-1,4.56,4.56,0,0,0,0-1.83,2.55,2.55,0,0,0-.51-1.44.62.62,0,0,0-.82-.08l-1,.56.62,4.35Z" style="fill:#fafafa"></path><path d="M280.18,286l-2-14.06-2,1.18a.31.31,0,0,1-.45-.08,2.47,2.47,0,0,1-.27-.92l-.11-.81a3.18,3.18,0,0,1,0-1.06.8.8,0,0,1,.36-.55l7-4c.2-.11.36-.09.47.07a2.14,2.14,0,0,1,.27.92l.12.81a3.19,3.19,0,0,1,0,1.07.77.77,0,0,1-.38.55l-2.05,1.19,2,14.06c.08.55-.23,1-.94,1.45l-.75.43C280.66,286.63,280.26,286.56,280.18,286Z" style="fill:#fafafa"></path><path d="M289.59,281.14a1.07,1.07,0,0,1-.27-.7L287,264.27a1.94,1.94,0,0,1,.05-.89,1,1,0,0,1,.48-.54l3.48-2q2.39-1.36,3.84.25t2.11,6.2a19,19,0,0,1-.14,7.52,6.81,6.81,0,0,1-3.19,4.29l-3.49,2C289.91,281.23,289.73,281.25,289.59,281.14Zm3.46-5.42a2.73,2.73,0,0,0,1.21-2.1,17.6,17.6,0,0,0-.21-4.66,13.19,13.19,0,0,0-1.06-4.18,1,1,0,0,0-1.58-.48l-1.17.67,1.63,11.43Z" style="fill:#fafafa"></path><path d="M300.18,275a1,1,0,0,1-.28-.7l-2.32-16.17a1.8,1.8,0,0,1,.06-.89,1,1,0,0,1,.47-.54l5.41-3.13a.31.31,0,0,1,.45.08,2.14,2.14,0,0,1,.27.92l.12.81a3.13,3.13,0,0,1,0,1.06.76.76,0,0,1-.36.55l-3.22,1.86.54,3.78,2.86-1.65a.31.31,0,0,1,.45.08,2.47,2.47,0,0,1,.27.92l.11.81a3.18,3.18,0,0,1,0,1.06.82.82,0,0,1-.36.55l-2.86,1.65.6,4.23,3.25-1.88a.3.3,0,0,1,.44.09,2.51,2.51,0,0,1,.26.92l.11.81a3.23,3.23,0,0,1,0,1.06.78.78,0,0,1-.35.54L300.73,275C300.49,275.12,300.31,275.13,300.18,275Z" style="fill:#fafafa"></path><path d="M312.24,261.89a.68.68,0,0,1-.37-.32L310,258.76a6.07,6.07,0,0,1-.31-.54c-.11-.21-.2-.36-.25-.47l-.07.07a13.46,13.46,0,0,1,.32,1.37l1.29,9a1.08,1.08,0,0,1-.16.78,2.19,2.19,0,0,1-.79.67l-.62.36a1.36,1.36,0,0,1-.84.27c-.19,0-.3-.2-.34-.49l-2.39-16.7a1.1,1.1,0,0,1,.15-.78,2.27,2.27,0,0,1,.79-.66l.57-.33a1.38,1.38,0,0,1,.72-.24.69.69,0,0,1,.49.33l3.15,4.82a5.66,5.66,0,0,1,.52,1.05,8.93,8.93,0,0,1,.16-1.44l1.39-7.45a1.89,1.89,0,0,1,.33-.79,2,2,0,0,1,.67-.57l.57-.33a1.46,1.46,0,0,1,.84-.28c.19,0,.3.2.34.5l2.39,16.69a1.12,1.12,0,0,1-.16.79,2.33,2.33,0,0,1-.78.66l-.63.36a1.46,1.46,0,0,1-.84.28c-.18,0-.3-.2-.34-.5l-1.29-9a9.61,9.61,0,0,1-.08-1.51h-.08c0,.38-.11.87-.22,1.46l-.85,4.39a1.9,1.9,0,0,1-.22.65,1.24,1.24,0,0,1-.42.4l-.31.18A.68.68,0,0,1,312.24,261.89Z" style="fill:#fafafa"></path><path d="M319.41,254.31q-1.34-9.33,3.47-12.11c1.57-.9,2.86-.83,3.9.21s1.77,3.16,2.23,6.36a18.62,18.62,0,0,1-.21,7.78,7.17,7.17,0,0,1-3.24,4.33Q320.75,263.66,319.41,254.31Zm6.66,2a5.69,5.69,0,0,0,.35-2.16,25.19,25.19,0,0,0-.31-3.7,21.73,21.73,0,0,0-.71-3.45,2.68,2.68,0,0,0-.87-1.46,1.09,1.09,0,0,0-1.14.09,2.41,2.41,0,0,0-1,1.14A5.76,5.76,0,0,0,322,249a23.26,23.26,0,0,0,.3,3.68,21.78,21.78,0,0,0,.72,3.45,2.67,2.67,0,0,0,.89,1.47,1.13,1.13,0,0,0,1.15-.1A2.34,2.34,0,0,0,326.07,256.31Z" style="fill:#fafafa"></path><path d="M234.58,299.76l-14.29-3.11a1.62,1.62,0,0,0-1.95,1.81l3,21a1.62,1.62,0,0,0,3,.63l11.28-17.88A1.62,1.62,0,0,0,234.58,299.76Z" style="fill:#fafafa"></path></g></g><g id="freepik--speech-bubble-2--inject-5"><g id="freepik--speech-bubble--inject-5"><g id="freepik--speech-bubble--inject-5"><path d="M445.52,97.05a19.48,19.48,0,0,1-5.25,13.34l-1.61,1.54A19.5,19.5,0,0,1,411.1,84.5l1.54-1.62a19.5,19.5,0,0,1,32.88,14.17Z" style="fill:#fff"></path><path d="M426,75.92A21.17,21.17,0,0,0,422.52,118l2.39,6.13a1.24,1.24,0,0,0,2.3,0l2.36-6.14a21.17,21.17,0,0,0-3.62-42Zm19.57,21.13a19.48,19.48,0,0,1-5.25,13.34l-1.61,1.54A19.5,19.5,0,0,1,411.1,84.5l1.54-1.62a19.5,19.5,0,0,1,32.88,14.17Z" style="fill:#455a64"></path><path d="M445.52,97.05a19.48,19.48,0,0,1-5.25,13.34l-1.61,1.54A19.5,19.5,0,0,1,411.1,84.5l1.54-1.62a19.5,19.5,0,0,1,32.88,14.17Z" style="fill:#fff;opacity:0.7000000000000001"></path></g><path d="M418.05,85.44a15.4,15.4,0,0,1,1.53-1.17,10.45,10.45,0,0,1,1.78-1,10.86,10.86,0,0,1,2.09-.64,11.51,11.51,0,0,1,2.43-.24,10.28,10.28,0,0,1,3.23.49,7.32,7.32,0,0,1,2.5,1.4,6.21,6.21,0,0,1,1.62,2.2,7.05,7.05,0,0,1,.57,2.88,7.23,7.23,0,0,1-.45,2.68,7.5,7.5,0,0,1-1.12,2,8.8,8.8,0,0,1-1.48,1.45l-1.52,1.16A11.53,11.53,0,0,0,428,97.72a2.1,2.1,0,0,0-.62,1.17l-.47,3h-3.45l-.35-3.32a2.77,2.77,0,0,1,.27-1.69,5.31,5.31,0,0,1,1.07-1.33,12.89,12.89,0,0,1,1.48-1.16,12.87,12.87,0,0,0,1.53-1.23,6.56,6.56,0,0,0,1.19-1.49,3.83,3.83,0,0,0,.48-2,3,3,0,0,0-.27-1.31,2.92,2.92,0,0,0-.77-1,3.41,3.41,0,0,0-1.17-.65,4.73,4.73,0,0,0-1.48-.22,6.56,6.56,0,0,0-2,.25,7.16,7.16,0,0,0-1.37.57c-.38.22-.69.41-.95.58a1.3,1.3,0,0,1-.7.25,1.11,1.11,0,0,1-1.06-.61Zm3.86,21.82a3.11,3.11,0,0,1,.24-1.21,2.91,2.91,0,0,1,1.62-1.63,3.14,3.14,0,0,1,1.23-.25,3,3,0,0,1,1.21.25,3.16,3.16,0,0,1,1,.65,3,3,0,0,1,.91,2.19,3,3,0,0,1-.91,2.18,3.16,3.16,0,0,1-1,.65,3.22,3.22,0,0,1-1.21.23,3.32,3.32,0,0,1-1.23-.23,3.05,3.05,0,0,1-1-.65,3,3,0,0,1-.64-1A3,3,0,0,1,421.91,107.26Z" style="fill:#BA68C8"></path></g></g><g id="freepik--speech-bubble-1--inject-5"><g id="freepik--speech-bubble--inject-5"><g id="freepik--speech-bubble--inject-5"><path d="M151.34,121.47l-29,16.77c-.57.33-1,1.13-1,2.68v34.53a2.23,2.23,0,0,0,1,1.79l4.12,2.34a2.31,2.31,0,0,0,2.08,0l29-16.77a2.28,2.28,0,0,0,1-1.79V125.58a2.23,2.23,0,0,0-1-1.78l-4.11-2.34A2.31,2.31,0,0,0,151.34,121.47Z" style="fill:#BA68C8"></path><path d="M128.55,179.57a2.41,2.41,0,0,1-2.08,0l-4.11-2.35a2.19,2.19,0,0,1-1-1.79V140.92a3.8,3.8,0,0,1,.37-1.93l6.14,3.54a1.88,1.88,0,0,0-.31,1V179C127.51,179.59,127.94,179.93,128.55,179.57Z" style="opacity:0.15"></path><path d="M118.48,166.31c-.65-.39-5.61-3.18-5.77-3.28a1,1,0,0,1-.2-1.47l8.8-10.1,6.2,3.56-9.21,9.83A1,1,0,0,0,118.48,166.31Z" style="fill:#BA68C8"></path><path d="M157.54,125l-29,16.77a2.29,2.29,0,0,0-1,1.79V155l-9.21,9.83a.93.93,0,0,0,.59,1.59l8.62-.63h0V179c0,.66.47.92,1,.59l29-16.77a2.28,2.28,0,0,0,1-1.79V125.58C158.57,124.92,158.11,124.65,157.54,125Z" style="fill:#BA68C8"></path><path d="M157.54,125l-29,16.77a2.29,2.29,0,0,0-1,1.79V155l-9.21,9.83a.93.93,0,0,0,.59,1.59l8.62-.63h0V179c0,.66.47.92,1,.59l29-16.77a2.28,2.28,0,0,0,1-1.79V125.58C158.57,124.92,158.11,124.65,157.54,125Z" style="fill:#fff;opacity:0.35000000000000003"></path></g><path d="M150,146.85l-10.52-3.28a1.35,1.35,0,0,0-1.75,1.29v18.7a1.35,1.35,0,0,0,2.46.76l10.52-15.43A1.35,1.35,0,0,0,150,146.85Z" style="fill:#fafafa"></path></g></g><g id="freepik--character-2--inject-5"><g id="freepik--Character--inject-5"><path d="M391.79,256.25a1.44,1.44,0,0,1,1.56.75c.22-.16.35-.45.62-.52s.61.19.81.46a6.11,6.11,0,0,1-.16,7.18,1.07,1.07,0,0,1-.35.32,1.22,1.22,0,0,1-.54.06,12.48,12.48,0,0,1-2.84-.53,3.15,3.15,0,0,1-2.22-1.68,3.68,3.68,0,0,1,.14-2.07,5.39,5.39,0,0,1,1.22-2.43C390.47,257.32,391.18,256.39,391.79,256.25Z" style="fill:#f28f8f"></path><path d="M410.58,185.87c-9.3,1.72-11.31,1.73-16.66,10.13-6.27,9.82-13.77,22.19-15.07,25-2.36,5.09-2.42,7,4.69,16.12,4.44,5.7,9.21,12.56,10.78,14.59.73,1-.1,2.82-.56,3.94-.71,1.74,0,3.68-.58,7a15.67,15.67,0,0,0-3.75-1.35s2.61-2.6,1.59-4.44a.57.57,0,0,0-.82-.21c-.62.44-1.59,1.47-2.73,2.49-2,1.8-1.51,2.22-.71,5.44.32,1.29,1.31,1.69,5.13,2.59s5,.44,9.87-3.38,4.24-14,2-18-9.66-19.13-9.66-19.13l15.15-22.33Z" style="fill:#ffa8a7"></path><path d="M394.13,226.72a11.1,11.1,0,0,1-8.47,1.77,8.5,8.5,0,0,0,9-.77" style="fill:#f28f8f"></path><g id="freepik--Bottom--inject-5"><path d="M461.27,397.18c-.87-12,.48-21.26-.52-40.05h0c-.09-4.82-.27-10-.59-14.56-1.09-15.43-3.46-20.7-3.68-23.68,0,0-.41-24-1.42-57.75-.47-15.87-5.07-20.68-8.75-29.11H401.65c-4.88,20.8-5.31,66.14-5.16,87.58.07,10.92,4.48,69.37,4.57,70.72.31,4.77-.1,6.65-2,8.66-3.92,4.2-9.59,8.2-14.5,11.86.71,1.88,6.61,1.81,9.53.38A74.77,74.77,0,0,0,405,404.29c4-3,9.18-5.38,9.25-9.92a3.51,3.51,0,0,1,.14-.81c.07-2.66,6.25-41.76,6.77-50.83.44-7.8-.51-21-.51-21l5-33s3.11,19.53,6.25,32.86c2.55,10.86,6.76,29.38,9.64,42.74h0c2.76,15.4,6.82,26.35,7.52,34.06.21,1.84,2.3,19.89,3.16,24s9.87,4.24,10.45-2.87C463.09,414.73,461.44,399.45,461.27,397.18Z" style="fill:#ffa8a7"></path><path d="M376.24,415.65c-.25,0-.65,2.74.69,3.92,1.55,1.37,6.12,3.63,12.19,2.91s9.38-2.56,11.83-4.56,5.88-4.84,8.63-5.41c2.56-.54,5.34-1.66,6.16-2.44s.75-4.29.75-4.29Z" style="fill:#263238"></path><path d="M414.52,392.27s.46,0,.61.84.35,3.77.73,5.36a28.57,28.57,0,0,1,.51,8.52c-.36,1.79-4.53,3-7.19,4a33.73,33.73,0,0,0-8.67,5.35,25,25,0,0,1-12.85,4.63c-6,0-9.93-1.66-11.11-3.84-1.46-2.7-.28-4.24,6.69-7.38,1.32-.6,6-3.28,7.55-4.25a37.53,37.53,0,0,0,4.76-3.46c.74-.66,1.46-1.35,2.14-2.08a9.71,9.71,0,0,0,1.78-2.22c.08-.18.13-.4.21-.59a11.15,11.15,0,0,0,.47-1.62c.11-.57.19-1.41.74-1.75a4.67,4.67,0,0,1,2.49-.27,18.73,18.73,0,0,1,2.67.41c1,.24,2.2.34,2.79,1.31a5.06,5.06,0,0,1,.55,2.52c0,.4,0,.81,0,1.21,0,.18-.08.49.16.42s.5-.67.59-.88c.19-.45.32-.93.54-1.38a6.93,6.93,0,0,1,.88-1.45,6.48,6.48,0,0,1,1.11-1.11,12,12,0,0,0,1.19-.76A2.73,2.73,0,0,0,414.52,392.27Z" style="fill:#37474f"></path><path d="M382.12,410.23c8.73.7,11.43,6.12,11.76,9.47a20.82,20.82,0,0,1-6.22,1.24c-6,0-10.17-1.66-11.36-3.84C374.92,414.55,375.9,412.52,382.12,410.23Z" style="fill:#fafafa"></path><path d="M395.22,410.46a.46.46,0,0,0,.27-.09.44.44,0,0,0,.07-.6,10.29,10.29,0,0,0-7.87-3.2.43.43,0,0,0-.39.46.43.43,0,0,0,.47.39,9.53,9.53,0,0,1,7.12,2.88A.39.39,0,0,0,395.22,410.46Z" style="fill:#f0f0f0"></path><path d="M399,408.31a.46.46,0,0,0,.27-.09.43.43,0,0,0,.06-.6,10.21,10.21,0,0,0-7.86-3.2.43.43,0,1,0,.08.85,9.49,9.49,0,0,1,7.12,2.88A.42.42,0,0,0,399,408.31Z" style="fill:#f0f0f0"></path><path d="M402.52,405.84a.46.46,0,0,0,.27-.09.43.43,0,0,0,.07-.6A10.24,10.24,0,0,0,395,402a.41.41,0,0,0-.38.46.42.42,0,0,0,.46.39,9.49,9.49,0,0,1,7.12,2.88A.41.41,0,0,0,402.52,405.84Z" style="fill:#f0f0f0"></path><path d="M406,403.37a.34.34,0,0,0,.27-.09.41.41,0,0,0,.07-.59c-1.65-2.14-5.41-3.57-8.59-3.26a.43.43,0,0,0-.38.47.42.42,0,0,0,.46.38c2.86-.28,6.38,1,7.84,2.93A.41.41,0,0,0,406,403.37Z" style="fill:#f0f0f0"></path><path d="M449.43,425.56c.24,4.12.88,6.85,2.34,9.27s4.22,3.18,7,2.47,6.38-2.6,7.18-6.16,1.27-6,.63-9.81Z" style="fill:#263238"></path><path d="M461.17,395.71c1.15.09,1.49,5.63,2.16,11.17.71,5.94,2.48,8.39,3.12,13.26.72,5.57-.2,8.05-2.15,11.42s-8.85,6.66-12.25,1.84c-2.77-3.92-2.89-8.28-2.63-13.84a124.88,124.88,0,0,0-.37-14.07c-.23-4.17-1.15-8.37-.15-8.83.08.61.15,1.38.23,2a9.91,9.91,0,0,0,.38,2.23c.11.31.37.63.47.13a3.3,3.3,0,0,0,0-1c-.17-1.53.61-1.66,1-1.78a47.6,47.6,0,0,1,5.34-.75c.88-.06,3.91-.2,4.31.3a3.52,3.52,0,0,1,.38,1.61c.1.84.3,1.45.32,1.19.05-.6-.06-2.16-.08-2.53s-.07-.86-.08-1.22S461.2,396.07,461.17,395.71Z" style="fill:#37474f"></path><path d="M466.77,423.37a13.83,13.83,0,0,1-2.16,8.45c-1.95,3.37-9.4,6.68-12.8,1.86-1.7-2.4-2.15-5.23-2.38-8.12C451.47,421.84,463.55,420.21,466.77,423.37Z" style="fill:#fafafa"></path><path d="M451.94,419.51l.14,0c.05,0,5.37-2.23,10.56-1a.43.43,0,0,0,.51-.32.42.42,0,0,0-.32-.51,20,20,0,0,0-11.12,1.09.43.43,0,0,0-.2.57A.46.46,0,0,0,451.94,419.51Z" style="fill:#f0f0f0"></path><path d="M462.38,414.3a.43.43,0,0,0,.36-.29.42.42,0,0,0-.26-.54c-5.16-1.75-10.89.87-11.11,1a.42.42,0,0,0-.18.57.43.43,0,0,0,.58.18c.05,0,5.63-2.57,10.43-.93A.55.55,0,0,0,462.38,414.3Z" style="fill:#f0f0f0"></path><path d="M462.2,410.39a.44.44,0,0,0,.36-.28.43.43,0,0,0-.26-.55c-5.67-2-11.11.83-11.31,1a.42.42,0,0,0-.15.58.44.44,0,0,0,.59.15s5.3-2.78,10.58-.89A.44.44,0,0,0,462.2,410.39Z" style="fill:#f0f0f0"></path><path d="M461.92,406.54a.45.45,0,0,0,.36-.28.43.43,0,0,0-.25-.55c-5.32-2-11.18,1-11.4,1.08a.42.42,0,0,0-.15.58.41.41,0,0,0,.58.16c.05,0,5.73-2.87,10.67-1A.58.58,0,0,0,461.92,406.54Z" style="fill:#ebebeb"></path><path d="M450.78,232c2.35,11.07,5.72,17.3,6.24,45.37s.44,35.93.55,39.31,2.08,9.44,3.81,26.11-.32,36.54-.32,36.54-1.19,2.68-7.57,3.25c-5.88.53-8.79-1.68-8.79-1.68s-8.06-32.47-10.3-42.51-8.71-43.06-8.71-43.06l-3.84,26.78s1.79,9.2,0,23.82-5,29.6-5,29.6a26.64,26.64,0,0,1-9,1.48,15.29,15.29,0,0,1-7.93-2.08s-5-43.5-5-60.07,1.65-57.74,4.1-82.86Z" style="fill:#455a64"></path><path d="M403.2,256.26c2.5,6.84,11.59,11.64,15.59,12.59L423.48,295l-1.63,27.14,3.84-26.78-5.25-31.87S409.36,262.7,403.2,256.26Zm37.91-3.34c.65,2.69,1.25,5.4,1.88,8.1s1.24,5.42,1.91,8.14a54.54,54.54,0,0,0-.56-8.38c-.36-2.78-.88-5.53-1.51-8.26a75.5,75.5,0,0,0-2.4-8.07,39.22,39.22,0,0,0-3.6-7.61c.84,2.68,1.58,5.35,2.29,8S440.49,250.22,441.11,252.92Zm4.71-5.18c.9,1.62,1.76,3.27,2.62,4.91l2.55,5a22.65,22.65,0,0,0-1.28-5.57,36.24,36.24,0,0,0-2.34-5.2,42.88,42.88,0,0,0-3.08-4.79,30.55,30.55,0,0,0-3.79-4.25c.82,1.72,1.73,3.36,2.63,5S445,246.11,445.82,247.74Zm-4.17,75.68c-1.59-8.59-2.73-17.26-3.86-25.95s-2.18-17.39-3.38-26.08c.52,8.76,1.16,17.5,2,26.23s1.91,17.46,3.49,26.12,3.38,17.21,5.19,25.79,3.67,17.14,5.67,25.68q-2-13-4.32-25.95C444.93,340.64,443.3,332,441.65,323.42Zm-39.88-29.17,1.43-22.86q-1.76,11.33-2.8,22.75c-.68,7.63-1.33,15.21-1.36,22.94.26,7.69.84,15.28,1.47,22.9s1.38,15.22,2.28,22.81q-.32-11.46-.91-22.9l-.57-11.43c-.19-3.81-.43-7.63-.5-11.41s.16-7.58.33-11.38S401.56,298.06,401.77,294.25Z" style="fill:#37474f"></path></g><g id="freepik--Top--inject-5"><path d="M455.44,250.62c-1.72-8.72-4-16.21-4.16-20.41-.27-8.78,1.83-15.43,2.56-20.36,1.61-10.73.43-20.22-2.07-22.33,0,0-7.28-1.68-9.66-2.11-1.89-.33-3.34-.56-5.83-1.16a35.24,35.24,0,0,0-12.82-.82c-1.16.12-5.25.89-7.35,1.38-1.67.39-5.56,1.06-5.56,1.06a57.06,57.06,0,0,0-6.35,9.49c-2.72,4.86-4.95,8.41-5.29,18-.54,15.27-1,28.41-1.62,36.5C408.28,256.64,441.26,258.89,455.44,250.62Z" style="fill:#37474f"></path><path d="M442.47,144.13c6.28,1.29,7.64,11.2,4.07,17.31-5.88,10.1-11.67,11.62-12.41,16.41-6.7-4.73-13.28-9.66-20-14.32-4.45-1.95-9.78-6.08-7.44-11.53a2.73,2.73,0,0,1-5-1.82,1.88,1.88,0,0,0,3.45.57c.77-1.37.27-3.12,0-4.66-.78-4.23,2.93-9.29,7.4-9C421.62,130.27,439.18,132.07,442.47,144.13Z" style="fill:#263238"></path><path d="M438.93,178.76a3,3,0,0,0-1.13-.76,6.06,6.06,0,0,0-1.7-.15,7.17,7.17,0,0,1-4-1.46,16.53,16.53,0,0,1-2.59-3.07c-.76-.91-.7-2.44-.63-3.55a14.91,14.91,0,0,1,3.2-8.76,10.28,10.28,0,0,1,2-1.79,18.47,18.47,0,0,1,2.26-1.15,3.77,3.77,0,0,1,.92-.34,23.68,23.68,0,0,1,2.79-.38,3,3,0,0,0,.51-.06,2.59,2.59,0,0,0,.64-.28,7.85,7.85,0,0,1,1.88-.81,12.91,12.91,0,0,1,4.79-.46,7.69,7.69,0,0,1,4.57,1.8,4.39,4.39,0,0,1,1.33,4.53,4.24,4.24,0,0,0-.53,1.79,3.22,3.22,0,0,0,.84,1.5c1.4,1.86,1.69,4.7.13,6.42a14.71,14.71,0,0,0-1.86,1.84c-.66,1.08-.43,2.47-.81,3.68a5.13,5.13,0,0,1-2.23,3,5.31,5.31,0,0,1-3.2.8c1.85-.79,2.33-2.83,1.89-4.79a5.82,5.82,0,0,1-2.33,3.73c-1.28.94-3.74,1.29-5.06.4A11.74,11.74,0,0,1,438.93,178.76Z" style="fill:#263238"></path><path d="M436,181l.36-9.86a4.59,4.59,0,0,0,5.66-1c3.19-3.2,3.56-6.75,1.89-9-1.85-2.55-6.05-1.67-7.91,1.37-2.74.6-3.78-3.32-1.64-7.28,0,0-5.51-3.34-4.36-9.17-4.76,2.87-15.74,4.08-18.28-.85-1.56,2.26-3.69,4.9-3.87,17.24-.16,11.29,2,14,5.06,15.4,1.82.84,4.06,1.09,7.54.84l-.2,2.92h0c-.08,1.46-.26,2.38-1.5,2.65s-3.15.76-3.15.76-3.76,3.67,5.27,5c13.47,2,20.68-4.61,20.68-4.61s-.9-.22-3.16-.72S435.84,182.79,436,181Z" style="fill:#ffa8a7"></path><path d="M422.88,168.18a3,3,0,0,1-1.15,1.35,5.6,5.6,0,0,1-1.91.64c-.1,0-.2-.24-.1-.27a5.78,5.78,0,0,0,1.72-.86,3.09,3.09,0,0,0,1.06-1.21C422.64,167.49,423,168,422.88,168.18Z" style="fill:#b16668"></path><path d="M413.65,152.71l-3.56,1.69a1.9,1.9,0,0,0,2.56,1A2.08,2.08,0,0,0,413.65,152.71Z" style="fill:#263238"></path><path d="M425.7,154.66l-3.33-2.19a1.91,1.91,0,0,1,2.7-.63A2.11,2.11,0,0,1,425.7,154.66Z" style="fill:#263238"></path><polygon points="418.85 156.49 418.18 166.84 412.89 164.57 418.85 156.49" style="fill:#f28f8f"></polygon><path d="M414.28,158.7a1.68,1.68,0,0,1-1.54,1.77A1.59,1.59,0,0,1,411,159a1.69,1.69,0,0,1,1.54-1.77A1.59,1.59,0,0,1,414.28,158.7Z" style="fill:#263238"></path><path d="M425.82,158.7a1.68,1.68,0,0,1-1.54,1.77,1.59,1.59,0,0,1-1.74-1.47,1.69,1.69,0,0,1,1.54-1.77A1.59,1.59,0,0,1,425.82,158.7Z" style="fill:#263238"></path><path d="M420.4,178.6c6.25-.54,12.25-2.51,13.68-5.34a5.6,5.6,0,0,1-2.56,4.56c-3.58,2-11.27,3-11.27,3Z" style="fill:#f28f8f"></path><g id="freepik--Hand--inject-5"><path d="M451.77,187.52c6.92,1.15,9.25,3.29,12.1,10.79,2.77,7.24,9.17,23.54,7.27,34.48-1.15,6.68-18-10.09-18-10.09l-8.07-18.59S445.93,187.52,451.77,187.52Z" style="fill:#f28f8f"></path><path d="M449.85,196.69a21,21,0,0,1-3.8-7.36c-.77-3.13-3.24-6-4.07-7.19s-2.65-2.92-4-4.58-1.79-2.12-3.78-2.46c-2.72-.46-4.86-.89-5.93-.56s-1,1-.11,2,2.88,1.17,3.49,1.36,1.94.76,1.94.76l2.52,3.72A36.79,36.79,0,0,0,431,183.6c-.84.45-1.56,2.63-1.19,3.82a2.33,2.33,0,0,0-1,2.61s-1,1.26-.3,2.28a16.89,16.89,0,0,0,2.55,2.83,7,7,0,0,0,2.58.57,18.89,18.89,0,0,0,3.23,3.75c1.47,1.08,2.44,1,4.05,3.29Z" style="fill:#ffa8a7"></path><path d="M434.15,182.73c-1-.43-1.23-1.12-2.19-.76s-.59,1.46-.59,1.46Z" style="fill:#f28f8f"></path><path d="M429.8,187.52a9.77,9.77,0,0,1,2.08-1.35c.7-.34,2.16-.85,2.16-.85a10.51,10.51,0,0,0-3,.7,9.2,9.2,0,0,0-1.4.7,2.19,2.19,0,0,0,.1.7Z" style="fill:#b16668"></path><path d="M429.66,189a6.72,6.72,0,0,0-1,.5,2.63,2.63,0,0,0,.16.69,8.46,8.46,0,0,1,2.69-1.68A9,9,0,0,0,429.66,189Z" style="fill:#b16668"></path><path d="M434,196.26a20.92,20.92,0,0,0-2.09-3.36,1.53,1.53,0,0,0-2.09-.2c-.27.41,1.12.36,1.52.53A13.42,13.42,0,0,1,434,196.26Z" style="fill:#b16668"></path><path d="M437.25,182.24s-.78-1.11-2.18-2.87-1.32-1.5-2.69-1.77-3.94-.73-4.64-1.55a3.08,3.08,0,0,0,.39.46c.9.91,2.88,1.17,3.49,1.36s1.94.76,1.94.76l2.59,3.83Z" style="fill:#f28f8f"></path><path d="M449.85,196.69c4.58,5.53,16.92,18.81,19.77,24.1,2,3.65,2.47,12.15.46,15.24s-7.78,1.79-12.44-2.3c-4-3.54-7.38-12-10.3-18.09s-6.42-12.89-6.42-12.89Z" style="fill:#ffa8a7"></path><path d="M447.13,192.23a15.3,15.3,0,0,1-.9-2.45,13.27,13.27,0,0,0-.84-2.49,23.83,23.83,0,0,0-2.79-4.44,36.83,36.83,0,0,0-3.39-4c-.59-.64-1.14-1.31-1.71-2a4.51,4.51,0,0,0-2.1-1.6,21,21,0,0,0-2.58-.52c-.86-.15-1.72-.3-2.59-.4a8.41,8.41,0,0,0-1.33-.05,2.32,2.32,0,0,0-1.3.41.76.76,0,0,0-.28.69,1.35,1.35,0,0,0,.27.65,3.26,3.26,0,0,0,1,.95,8.21,8.21,0,0,0,2.51.86,13.55,13.55,0,0,1,2.4.87l2.4,3.52c-1.49.3-3,.59-4.45,1a2.31,2.31,0,0,0-.57.24,1.68,1.68,0,0,0-.45.43,4.78,4.78,0,0,0-.74,3.42,2.93,2.93,0,0,0-.92,1.14,1.87,1.87,0,0,0-.16.77,2.18,2.18,0,0,0,.13.72,2.28,2.28,0,0,0-.38,2.15,10.54,10.54,0,0,0,1.39,1.77c.26.27.52.54.79.8a2.69,2.69,0,0,0,.91.68,9.1,9.1,0,0,0,2.19.35,22.8,22.8,0,0,0,1.53,2,9.7,9.7,0,0,0,1.84,1.78c.7.51,1.5.83,2.19,1.33a8.1,8.1,0,0,1,1.75,1.85,8.09,8.09,0,0,0-1.73-1.87c-.69-.52-1.49-.86-2.17-1.36a10.22,10.22,0,0,1-1.8-1.8c-.54-.66-1-1.35-1.52-2.05l0,0h0a9.29,9.29,0,0,1-2.18-.37,2.25,2.25,0,0,1-.85-.64c-.27-.26-.53-.53-.78-.8a10.09,10.09,0,0,1-1.35-1.73,2.12,2.12,0,0,1,.4-2l0,0V190a1.71,1.71,0,0,1-.13-.7,1.68,1.68,0,0,1,.15-.69,2.68,2.68,0,0,1,.9-1.1l.06,0,0-.07a4,4,0,0,1,.2-2.26c.26-.72.63-1.48,1.43-1.63,1.5-.44,3.06-.73,4.61-1l.18,0-.1-.15-2.52-3.73,0,0h0a14.13,14.13,0,0,0-2.48-.91,7.67,7.67,0,0,1-2.43-.82,3.07,3.07,0,0,1-.9-.86c-.24-.33-.36-.77,0-1a3.7,3.7,0,0,1,2.44-.31c.87.09,1.73.24,2.59.38a23.94,23.94,0,0,1,2.55.5,4.37,4.37,0,0,1,2,1.53c.56.66,1.13,1.34,1.72,2a36.39,36.39,0,0,1,3.4,4,23.9,23.9,0,0,1,2.8,4.4,13.28,13.28,0,0,1,.86,2.46,15.47,15.47,0,0,0,.94,2.45,27.46,27.46,0,0,0,2.78,4.43A28.28,28.28,0,0,1,447.13,192.23Z" style="fill:#b16668"></path></g></g></g></g><g id="freepik--character-1--inject-5"><g id="freepik--Chartacter--inject-5"><g id="freepik--bottom--inject-5"><path d="M39.82,398.3c.87-11.7-.47-20.67.53-38.94h0c.08-4.68.26-9.7.58-14.16,1.08-15,3.45-20.12,3.67-23,0,0,.4-23.34,1.41-56.15.47-15.44,5.05-20.11,8.71-28.31H100c4.86,20.22,4.48,64.31,4.34,85.15-.07,10.62-4.47,67.45-4.55,68.76-.32,4.64.1,6.47,2,8.42,3.9,4.08,9.55,8,14.43,11.53-.7,1.82-6.58,1.76-9.49.37a75.61,75.61,0,0,1-10.84-6.75c-4-2.9-9.14-5.23-9.21-9.65a4.67,4.67,0,0,0-.13-.78c-.08-2.58-6.23-40.6-6.74-49.42-.45-7.58.5-20.45.5-20.45l-5-32.13s-3.09,19-6.22,32c-2.54,10.56-6.74,28.57-9.6,41.56h0c-2.75,15-6.79,25.61-7.49,33.11-.21,1.78-2.28,19.34-3.14,23.36S39,426.89,38.39,420C38,415.37,39.66,400.51,39.82,398.3Z" style="fill:#c8856a"></path><path d="M124.49,416.25a3.73,3.73,0,0,1-.69,3.82c-1.54,1.33-6.09,3.53-12.14,2.83s-9.34-2.49-11.78-4.44-5.85-4.7-8.59-5.26c-2.55-.52-5.31-1.61-6.14-2.37s-.74-4.17-.74-4.17Z" style="fill:#263238"></path><path d="M86.37,393.53s-.45,0-.6.81c-.18.94-.35,3.67-.73,5.22a26.64,26.64,0,0,0-.5,8.28c.35,1.74,4.5,2.91,7.15,3.86a33.88,33.88,0,0,1,8.63,5.2,25.38,25.38,0,0,0,12.8,4.5c6,0,9.88-1.61,11.06-3.73,1.46-2.63.28-4.13-6.66-7.18-1.32-.58-5.94-3.19-7.52-4.13a35,35,0,0,1-4.73-3.37,25.3,25.3,0,0,1-2.13-2,9.45,9.45,0,0,1-1.78-2.17c-.08-.17-.13-.38-.21-.57a9.72,9.72,0,0,1-.46-1.57c-.12-.56-.2-1.38-.75-1.71a4.69,4.69,0,0,0-2.47-.26,19.85,19.85,0,0,0-2.66.4c-1,.23-2.19.33-2.78,1.27a4.71,4.71,0,0,0-.54,2.45c0,.39,0,.79,0,1.18,0,.17.07.47-.17.41s-.49-.65-.58-.85c-.2-.44-.33-.91-.54-1.34a6.88,6.88,0,0,0-.88-1.42,7,7,0,0,0-1.1-1.08A10.79,10.79,0,0,1,87,395,2.68,2.68,0,0,1,86.37,393.53Z" style="fill:#37474f"></path><path d="M118.63,411c-8.69.68-11.37,5.95-11.71,9.2a21,21,0,0,0,6.2,1.21c6,0,10.13-1.61,11.31-3.74C125.8,415.19,124.83,413.21,118.63,411Z" style="fill:#fafafa"></path><path d="M105.59,411.21a.36.36,0,0,1-.27-.09.4.4,0,0,1-.06-.58,10.34,10.34,0,0,1,7.83-3.11.41.41,0,1,1-.08.82,9.6,9.6,0,0,0-7.09,2.81A.41.41,0,0,1,105.59,411.21Z" style="fill:#f0f0f0"></path><path d="M101.82,409.12a.46.46,0,0,1-.27-.09.41.41,0,0,1-.07-.58,10.31,10.31,0,0,1,7.84-3.11.41.41,0,1,1-.08.82,9.57,9.57,0,0,0-7.09,2.81A.43.43,0,0,1,101.82,409.12Z" style="fill:#f0f0f0"></path><path d="M98.32,406.72a.46.46,0,0,1-.27-.09.4.4,0,0,1-.06-.58,10.33,10.33,0,0,1,7.83-3.11.41.41,0,1,1-.08.82,9.62,9.62,0,0,0-7.09,2.81A.41.41,0,0,1,98.32,406.72Z" style="fill:#f0f0f0"></path><path d="M94.89,404.32a.41.41,0,0,1-.34-.67c1.65-2.07,5.4-3.46,8.56-3.16a.41.41,0,0,1,.38.46.43.43,0,0,1-.46.37c-2.85-.27-6.35,1-7.81,2.84A.39.39,0,0,1,94.89,404.32Z" style="fill:#f0f0f0"></path><path d="M51.62,425.89c-.24,4-.88,6.67-2.33,9s-4.21,3.09-7,2.4-6.35-2.53-7.14-6-1.27-5.82-.63-9.54Z" style="fill:#263238"></path><path d="M39.92,396.87c-1.14.09-1.48,5.47-2.14,10.86-.71,5.77-2.48,8.16-3.11,12.9-.72,5.41.19,7.82,2.13,11.09s8.82,6.48,12.2,1.8c2.76-3.82,2.88-8,2.63-13.46A115.88,115.88,0,0,1,52,406.38c.22-4.05,1.14-8.14.14-8.59-.08.6-.15,1.35-.23,1.93a9.22,9.22,0,0,1-.37,2.16c-.12.31-.37.62-.48.13a3.42,3.42,0,0,1,0-1c.17-1.49-.6-1.61-1-1.73a53,53,0,0,0-5.32-.73c-.88-.06-3.9-.19-4.29.3a3.19,3.19,0,0,0-.39,1.56c-.1.82-.29,1.41-.31,1.16-.06-.58.06-2.1.07-2.47s.07-.83.08-1.18S39.9,397.22,39.92,396.87Z" style="fill:#37474f"></path><path d="M34.35,423.76A13.23,13.23,0,0,0,36.5,432c1.94,3.27,9.36,6.49,12.75,1.81,1.68-2.33,2.13-5.09,2.37-7.9C49.59,422.28,37.55,420.69,34.35,423.76Z" style="fill:#fafafa"></path><path d="M49.12,420,49,420a20,20,0,0,0-10.51-1,.42.42,0,0,1-.51-.31.42.42,0,0,1,.32-.5,20.44,20.44,0,0,1,11.07,1.06.41.41,0,0,1,.2.55A.43.43,0,0,1,49.12,420Z" style="fill:#f0f0f0"></path><path d="M38.72,414.94a.41.41,0,0,1-.36-.28.4.4,0,0,1,.26-.52c5.14-1.7,10.85.85,11.06,1a.4.4,0,0,1,.18.56.44.44,0,0,1-.57.17s-5.61-2.5-10.39-.91A.37.37,0,0,1,38.72,414.94Z" style="fill:#f0f0f0"></path><path d="M38.9,411.14a.44.44,0,0,1-.36-.27.41.41,0,0,1,.26-.53c5.65-2,11.06.81,11.26.93a.4.4,0,0,1,.15.57.45.45,0,0,1-.59.14s-5.27-2.7-10.54-.86A.37.37,0,0,1,38.9,411.14Z" style="fill:#f0f0f0"></path><path d="M39.18,407.4a.44.44,0,0,1-.36-.27.41.41,0,0,1,.25-.53c5.3-1.94,11.13.92,11.35,1a.41.41,0,0,1,.15.57.42.42,0,0,1-.58.15c-.05,0-5.7-2.79-10.62-1A.42.42,0,0,1,39.18,407.4Z" style="fill:#ebebeb"></path><path d="M46.89,237.87c-.71,13-2.31,16.68-2.83,44s-.44,34.94-.55,38.23-2.07,9.17-3.79,25.38S40,381,40,381s1.19,2.61,7.54,3.17c5.85.51,8.75-1.64,8.75-1.64s8-31.56,10.25-41.33,8.68-41.86,8.68-41.86l3.83,26s-1.79,9,0,23.16S84,377.28,84,377.28a26.85,26.85,0,0,0,9,1.43,15.49,15.49,0,0,0,7.9-2s5-42.29,5-58.41-1.28-57.17-2.28-80.24Z" style="fill:#455a64"></path><path d="M41.13,382.14a5.86,5.86,0,0,0,.86.54c-1.61-25.47,1.63-40.1,3.79-49.85.21-.93.41-1.82.59-2.67C48,322.54,48,312.64,48,300.11c0-3.77,0-7.67,0-11.81,0-4.84.19-9.86.6-14.82,9.09-1.06,11.07-9.83,13.55-20.9.34-1.52.7-3.08,1.08-4.69l-.81-.18c-.38,1.61-.73,3.18-1.08,4.69-2.49,11.1-4.32,19.16-12.67,20.24,1-11.27,3.37-22.19,9-30.08L57,242.1c-8.42,11.74-9.7,29.94-9.85,46.19,0,4.15,0,8,0,11.82,0,12.48,0,22.34-1.57,29.88-.18.85-.38,1.74-.59,2.67C42.82,342.38,39.59,356.92,41.13,382.14ZM80,272.87l-4.76,26.44,3.83,26-.51-25.29,3.08-14.66c.13,1.9.27,3.86.41,5.86,1.15,16.47,2.93,30.59,2,34.52-2.42,10.77-1.7,17.57-.41,29.91.13,1.25.27,2.56.41,3.93.71,7,1.49,13.81,2,18.29l.86.2c-.53-4.48-1.33-11.45-2.06-18.57-.14-1.37-.28-2.68-.41-3.94-1.28-12.25-2-19,.4-29.64.91-4.05-.81-17.42-2-34.76-.22-3.14-.43-6.19-.63-9.09l1-5.45c4-.94,12.74-5.45,13.9-10.81C91,272.1,80,272.87,80,272.87Z" style="fill:#37474f"></path></g><g id="freepik--top--inject-5"><path d="M94.58,180.57c5.16.84,10.23,3.46,14.14,11.25,3.21,6.4,4,12,9,22.06l21.19-.34-3.77,13.54s-12.64,2.25-19.17,2.77c-4.89.39-6.87-.92-9.83-4.91-3.88-5.21-9.3-17.43-9.3-17.43Z" style="fill:#BA68C8"></path><g id="freepik--Chest--inject-5"><path id="freepik--chest--inject-5" d="M66.2,179.3c-8.58,1.92-13,3.18-17.06,4.13,0,0-4.65,5.48-4.2,34.53.05,3.53.9,28.65.26,37.19,0,0,14.31,8.1,38.3,5.64,18.82-1.92,21.09-8.93,21.09-8.93s-1.07-25.71-1.32-39.63c-.33-18.08-2.13-26.14-8.69-31.66-.68-.39-13.45-2.32-13.45-2.32Z" style="fill:#fafafa"></path><path id="freepik--chest--inject-5" d="M81.1,178.93c4.69.71,12.26,1.92,13.11,2.21,6.08,5.16,8,12.45,8.38,31.1.24,13.24,1.23,37.42,1.31,39.5-.35.82-3.49,6.64-20.47,8.38-3,.3-6,.46-8.89.46-16.25,0-26.59-4.79-28.63-5.83.48-7.38,0-25.4-.21-33.18,0-1.73-.07-3-.08-3.62-.4-25.68,3.25-32.82,3.93-33.92,1.41-.33,2.87-.7,4.54-1.13,3-.76,6.8-1.72,12.21-2.93l14.8-1m0-.68L66.2,179.3c-8.58,1.92-13,3.18-17.06,4.13,0,0-4.65,5.48-4.2,34.53.05,3.53.9,28.65.26,37.19,0,0,10.8,6.11,29.34,6.11a86.2,86.2,0,0,0,9-.47c18.82-1.92,21.09-8.93,21.09-8.93s-1.07-25.71-1.32-39.63c-.33-18.08-2.13-26.14-8.69-31.66-.68-.39-13.45-2.32-13.45-2.32Z" style="fill:#e0e0e0"></path></g><g id="freepik--Head--inject-5"><path d="M67.93,147.73c1.36,4.92-2.48,9.56-4.26,11,.17,2.83.28,9.06.29,11.94-5.06-1.15-13.41-27.22-4.71-30.1-1-5.42,5.3-8.23,10.33-9.64s7.19-4,11.59-2.79a3.76,3.76,0,0,1,2.57,3.3,9.58,9.58,0,0,1,5.92-.17c2.43.52,3.87,4.21,1.22,5.37,2.18.31,4.88,1.82,4.49,4.35A2.62,2.62,0,0,1,92.82,143c2.53.43,4.53,3,2.21,5a1.6,1.6,0,0,0-.39,1.43c.17.49.84.83,1.22.32a1.89,1.89,0,0,1-3.16-.49c-.29-.62,0-1.26-.24-1.91-.75,2.76-4.27,1.61-6.35,1.89C80.13,148.35,74,148.35,67.93,147.73Z" style="fill:#263238"></path><path d="M57.41,165.59c3.63,1.82,5.33-1,5.33-1l-.2,16.56c6.88,9.45,26.16,5.16,18.59-2l0-4.45a27.51,27.51,0,0,0,3.16-.3c3.24-.47,5.29-2.74,6.3-6.22,1.48-5.16,2.15-13.43.31-22.25-.36-1.71-1.07-3.57-2.62-4.36-3.85-2-7.46.75-12.89,2.79-2.24.84-7.67,1.16-9.09.47,1.86,2.1.71,7.47.18,9.17-.75,2.45-1.8,3.63-2.31,3.73-2.22.44-2.45-1.46-3.43-2.51a4.06,4.06,0,0,0-6.34,1.37A6.62,6.62,0,0,0,57.41,165.59Z" style="fill:#c8856a"></path><path d="M65.05,168.71c1,4.78,7.89,7.64,16.09,7.94v-1.94a38,38,0,0,1-6-.62C70.41,173.24,66.67,171.37,65.05,168.71Z" style="fill:#af6152"></path><path d="M75.57,150.11,72,151.61a2,2,0,0,1,1.08-2.6A1.89,1.89,0,0,1,75.57,150.11Z" style="fill:#263238"></path><path d="M89.05,151.11,85.31,150a1.88,1.88,0,0,1,2.37-1.34A2,2,0,0,1,89.05,151.11Z" style="fill:#263238"></path><path d="M73.29,153.94a1.58,1.58,0,1,0,1.54-1.61A1.58,1.58,0,0,0,73.29,153.94Z" style="fill:#263238"></path><path d="M85.22,153.79a1.58,1.58,0,1,0,1.54-1.61A1.43,1.43,0,0,0,85.22,153.79Z" style="fill:#263238"></path><path d="M79.61,152l1.49,9.4L86,160.24A18.74,18.74,0,0,0,79.61,152Z" style="fill:#af6152"></path><path d="M76.49,162.57l5.45,2.11a2.87,2.87,0,0,1-3.74,1.78A3.07,3.07,0,0,1,76.49,162.57Z" style="fill:#af6152"></path><path d="M77,163.6a3.38,3.38,0,0,0-.7-.1,3,3,0,0,0,1.88,3,2.76,2.76,0,0,0,.92.17A2.67,2.67,0,0,0,77,163.6Z" style="fill:#ffa8a7"></path></g><g id="freepik--tablet--inject-5"><path d="M143.9,194.5h0l-1.38-.93v0a1.43,1.43,0,0,0-1.3,0l-35.59,14.58A5,5,0,0,0,103,211.4l-6.31,29.3a1.28,1.28,0,0,0,.35,1.41h0l1.43.95v0a1.44,1.44,0,0,0,1.32,0l35.58-14.58a5,5,0,0,0,2.7-3.22l6.31-29.3C144.49,195.23,144.3,194.72,143.9,194.5Z" style="fill:#455a64"></path><path d="M105.67,210.07a4.88,4.88,0,0,0-1.32,2.26L98,241.62a1.33,1.33,0,0,0,.31,1.39L97,242.12h0a1.27,1.27,0,0,1-.36-1.41L103,211.39a4.81,4.81,0,0,1,1.21-2.13Z" style="fill:#37474f"></path><path d="M98,241.62l6.31-29.3a5,5,0,0,1,2.7-3.21l35.58-14.58c1.22-.5,2,.14,1.7,1.42L138,225.25a5,5,0,0,1-2.7,3.22L99.74,243.05C98.53,243.54,97.77,242.9,98,241.62Z" style="fill:#263238"></path><path d="M105.09,218.22l1.18-5.49a.93.93,0,0,1,.51-.6l2.45-1c.22-.09.37,0,.31.27-.23,1.08-.94,4.4-1.18,5.48a.91.91,0,0,1-.5.6l-2.45,1C105.18,218.57,105,218.46,105.09,218.22Z" style="fill:#455a64"></path><path d="M106.55,214a2.34,2.34,0,0,1,1.29-1.48c.59-.24,1,0,.83.62a2.35,2.35,0,0,1-1.29,1.49C106.8,214.84,106.42,214.56,106.55,214Z" style="fill:#263238"></path><path d="M106,216.74a2.32,2.32,0,0,1,1.29-1.49c.58-.24,1,0,.83.62a2.35,2.35,0,0,1-1.29,1.49C106.23,217.6,105.86,217.32,106,216.74Z" style="fill:#263238"></path><path d="M143.1,213.24c1.16-1.8,1-2,.31-2.88a5.47,5.47,0,0,0-4.57-2,11.15,11.15,0,0,0-3.83.62c-.77.45,0,2.07,2,2.41,3.17.54,3.2,1.39,3.2,1.39a41.06,41.06,0,0,0-4.08-.5,29.39,29.39,0,0,0-4.56.94c-1.31.28-1.49,2,.79,2.47l-2.41.51c-1.68.36-2.21,1.29-.82,2.27a2.52,2.52,0,0,0,1.57.5s-1.81.09-1.82.69c0,1.73,1.13,2.12,4.83,3,3.53.83,4.35,2.66,3.72,4,0,0,1.36-.89,2.57-1.82.88-.67,1.61-1.43,1.13-2.83,0,0,2-.07,2-1.3a6.33,6.33,0,0,0-.61-2.61,2.17,2.17,0,0,0,1-2.1,3.49,3.49,0,0,0-.83-2.12Z" style="fill:#c8856a"></path><path d="M132.36,215.65a11,11,0,0,1,2.18-.36,7.15,7.15,0,0,1,2.17.57,24.77,24.77,0,0,1,3.94,1.85,26,26,0,0,1-4.17-1.25,11,11,0,0,0-2-.67C133.84,215.72,133.08,215.74,132.36,215.65Z" style="fill:#af6152"></path><path d="M130.7,218.93a4.76,4.76,0,0,1,2.37-.2,11.78,11.78,0,0,1,2.3.6,22.32,22.32,0,0,1,4.26,2,44.56,44.56,0,0,1-4.47-1.39A12.52,12.52,0,0,0,130.7,218.93Z" style="fill:#af6152"></path></g><g id="freepik--Arm--inject-5"><g id="freepik--arm--inject-5"><path d="M74.21,206.62c2.92-2.47,4.41-3.45,5.81-3.94s6.29-2.89,8.18-3.49c1.2-.38,1.81,1.53.34,3-1.13,1.1-4.15,2.64-5.47,3.47s-3.79,4.25-3.79,4.25Z" style="fill:#af6152"></path><path d="M36.5,195.2c2.63-6.65,5.21-8.64,12.07-10.87,7.33,6.31,3.22,23.8,3.22,23.8l-4.07,15.73s13.1-4.14,15.09-5.59,7.18-7.77,8.93-9.68c2.39-2.59,3.66-2.34,5-2.23,4.26.37,5.21.67,6.14,1.18a1.93,1.93,0,0,1,.92,1.59c1.13.08,2.8-.06,3.14,1.76a5.29,5.29,0,0,1,.15,1.48,1.2,1.2,0,0,1,.76.37c1,1-.37,4.86-1.33,5.84a3.67,3.67,0,0,1-3,.73c-1.15-.09-.69-1.27-.69-1.27l-1.59.19c-3.28,2.65-3.15,7.5-7.62,8.84a31.45,31.45,0,0,0-5.48,1.42c-9.58,3.9-21.82,14.84-30.48,16.13-8.46,1.26-9.56-3.68-9.5-8.9C28.2,227.39,33.87,201.84,36.5,195.2Z" style="fill:#c8856a"></path><path d="M48.32,221.56l-.6,2.3c-3.8,1.24-9.54,5.25-10.34,7.42C37.9,227.88,41.62,223.8,48.32,221.56Z" style="fill:#9a4a4d"></path><path d="M83.77,209.13,78.39,209l5.24-.51A2.17,2.17,0,0,1,83.77,209.13Z" style="fill:#af6152"></path><path d="M87.06,212.37,81.25,212,87,211.7A2.9,2.9,0,0,1,87.06,212.37Z" style="fill:#af6152"></path><path d="M86.46,215a1.87,1.87,0,0,1-.73.72,4.13,4.13,0,0,1-1,.4l.07-.06c-.13.31-.28.61-.43.92l-.13-.15a1.18,1.18,0,0,1,.94.17,1.61,1.61,0,0,1,.55.72,2,2,0,0,0-.63-.59,1.15,1.15,0,0,0-.79-.09l-.22.06.09-.21c.14-.31.28-.62.43-.92l0-.05h0a6.16,6.16,0,0,0,.94-.33A2.12,2.12,0,0,0,86.46,215Z" style="fill:#af6152"></path><path d="M85,215.79a16.78,16.78,0,0,1-2.08.28,2.16,2.16,0,0,1-.64,1.15,11.68,11.68,0,0,1-1.07,1l1.59-.19a2.53,2.53,0,0,1,1.76-1.1Z" style="fill:#af6152"></path></g><path d="M49.14,183.43c2.15,1.24,6.32,8.54,3.77,20.71a193,193,0,0,1-5,19.51l7.22-2.11s-.32,5.11,1.2,8.37S59.68,233,59.68,233s-2.78,2.16-8.18,5.69-12.92,8-18.15,6.85-5.79-5.42-5.58-11.25,4.54-24.89,5.93-30.94S36,186.66,49.14,183.43Z" style="fill:#BA68C8"></path><path d="M47.91,223.65c-3.66,1-10,6-10.9,8,1.05-4.48,5.43-9.19,11.7-10.63Z" style="opacity:0.2"></path></g></g></g></g></svg>
